<?xml version="1.0" encoding="UTF-8"?>
<svg xmlns="http://www.w3.org/2000/svg" xmlns:xlink="http://www.w3.org/1999/xlink" width="24px" height="24px" viewBox="0 0 24 24" version="1.1">
    <!-- Generator: Sketch 51.3 (57544) - http://www.bohemiancoding.com/sketch -->
    <title>43 - Bluetooth </title>
    <desc>Created with Sketch.</desc>
    <defs/>
    <g id="Page-1" stroke="none" stroke-width="1" fill="none" fill-rule="evenodd">
        <g id="43---Bluetooth-" transform="translate(0.000000, 1.000000)">
            <path d="M12.0239,0.0177 C8.15790675,0.0177 5.0239,3.15170675 5.0239,7.0177 L5.0239,10.0177 C5.0239,10.0177 5.05,15.5812 3.469,16.8046 C3.40939545,16.8442814 3.37897959,16.9155181 3.39154235,16.9860128 C3.40410511,17.0565074 3.45725698,17.1128516 3.5269,17.1295 C9.12966686,18.3138003 14.9181331,18.3138003 20.5209,17.1295 C20.5905283,17.1128242 20.6436532,17.0564681 20.6561935,16.9859775 C20.6687338,16.9154869 20.6383049,16.8442665 20.5787,16.8046 C18.9974,15.5812 19.0239,10.0177 19.0239,10.0177 L19.0239,7.0177 C19.0239,3.15170675 15.8898932,0.0177 12.0239,0.0177" id="Shape" fill="#F9F050" fill-rule="nonzero"/>
            <path d="M8.0237,8.0176 C7.47141525,8.0176 7.0237,7.56988475 7.0237,7.0176 C7.02695114,4.25752404 9.26362404,2.02085114 12.0237,2.0176 C12.5759847,2.01760001 13.0237,2.46531526 13.0237,3.0176 C13.0237,3.56988474 12.5759847,4.01759999 12.0237,4.0176 C10.3675997,4.01941871 9.02551871,5.36149967 9.0237,7.0176 C9.0237,7.56988475 8.57598475,8.0176 8.0237,8.0176 Z" id="Shape" fill="#F4F4F4" fill-rule="nonzero"/>
            <path d="M8.0439,17.8181 C8.0405,17.8856 8.0239,17.9494 8.0239,18.0181 C8.0239,20.227239 9.814761,22.0181 12.0239,22.0181 C14.233039,22.0181 16.0239,20.227239 16.0239,18.0181 C16.0239,17.9498 16.0072,17.886 16.0039,17.8181 C13.3568194,18.075709 10.6909806,18.075709 8.0439,17.8181 Z" id="Shape" fill="#F9A52B" fill-rule="nonzero"/>
            <path d="M8.0439,17.8181 C8.0405,17.8856 8.0239,17.9494 8.0239,18.0181 C8.0239,20.227239 9.814761,22.0181 12.0239,22.0181 C14.233039,22.0181 16.0239,20.227239 16.0239,18.0181 C16.0239,17.9498 16.0072,17.886 16.0039,17.8181 C13.3568194,18.075709 10.6909806,18.075709 8.0439,17.8181 Z" id="Shape" stroke="#40464C" stroke-width="2" stroke-linecap="round" stroke-linejoin="round"/>
            <path d="M5,7.0258 L5,10.0258 C5,10.0258 5.0164,15.5893 3.4351,16.8126 C3.37549508,16.8522665 3.34506616,16.9234869 3.35760649,16.9939775 C3.37014682,17.0644681 3.42327173,17.1208242 3.4929,17.1375 C9.09565638,18.3219005 14.8841436,18.3219005 20.4869,17.1375 C20.556543,17.1208516 20.6096949,17.0645074 20.6222577,16.9940128 C20.6348204,16.9235181 20.6044045,16.8522814 20.5448,16.8126 C18.9634,15.5893 19,10.0258 19,10.0258 L19,7.0258 C19.0014432,3.15632537 15.8694658,0.0163838138 12,0.008" id="Shape" stroke="#40464C" stroke-width="2" stroke-linecap="round" stroke-linejoin="round"/>
            <path d="M22,13.3359 C21.6148166,13.3354818 21.264114,13.1138717 21.098383,12.7661654 C20.9326521,12.4184591 20.9813578,12.0064748 21.2236,11.707 C22.2587846,10.4241558 22.2587846,8.59294423 21.2236,7.3101 C20.8844273,6.88027884 20.9539771,6.25761953 21.3796278,5.91322762 C21.8052786,5.56883571 22.4287402,5.63078299 22.7783,6.0522 C24.4072116,8.06851776 24.4072116,10.9484822 22.7783,12.9648 C22.5885,13.2000418 22.3022621,13.3365225 22,13.3359 Z" id="Shape" fill="#40464C" fill-rule="nonzero"/>
            <path d="M2,13.3359 C1.69740551,13.3363507 1.41088051,13.1997614 1.2207,12.9644 C-0.406309682,10.9472954 -0.405476681,8.06836269 1.2227,6.0522 C1.44515566,5.76747799 1.80390236,5.62490227 2.16111319,5.67924902 C2.51832402,5.73359577 2.8184365,5.97641159 2.94615042,6.31440908 C3.07386433,6.65240657 3.00931438,7.03301178 2.7773,7.31 C1.74222631,8.59307085 1.74222631,10.4243291 2.7773,11.7074 C3.01939491,12.0070081 3.06788375,12.4190316 2.90195834,12.7666574 C2.73603292,13.1142832 2.38519464,13.3357038 2,13.3359 Z" id="Shape" fill="#40464C" fill-rule="nonzero"/>
            <path d="M8.01,17.8262 C8.0066,17.8937 7.99,17.9574 7.99,18.0262 C7.99,20.235339 9.780861,22.0262 11.99,22.0262 C14.199139,22.0262 15.99,20.235339 15.99,18.0262 C15.99,17.9578 15.9734,17.8941 15.97,17.8262 C13.3229148,18.0837133 10.6570852,18.0837133 8.01,17.8262 Z" id="Shape" stroke="#40464C" stroke-width="2" stroke-linecap="round" stroke-linejoin="round"/>
        </g>
    </g>
</svg>
