<?xml version="1.0" encoding="UTF-8"?>
<svg xmlns="http://www.w3.org/2000/svg" id="a" width="65px" height="65px" viewBox="0 0 65 65"><circle cx="41.5" cy="22.5" r="21.5" fill="#e5efef" stroke-width="0"/><path d="m37,52h22.44c1.96,0,3.56-1.59,3.56-3.56v-28.89c0-1.96-1.59-3.56-3.56-3.56H4.46c-1.96,0-3.56,1.59-3.56,3.56v28.89c0,1.96,1.59,3.56,3.56,3.56h22.54c0,2.76,2.24,5,5,5h0c2.76,0,5-2.24,5-5h0Z" fill="#fc8c29" stroke-width="0"/><path d="m8,46.98h48v-6.98H8s0,7.42,0,6.98Z" fill="#fff" stroke-width="0"/><rect x="37" y="42" width="6" height="10" fill="#f53e28" stroke-width="0"/><path d="m31.95,46.82V10.86c7.49-4.05,15.56-3.57,24.05,0v35.96c-5.06-4.81-17.72-4.81-24.05,0Z" fill="#fff" stroke-width="0"/><path d="m31.95,46.82V10.86c-7.46-4.05-15.5-3.57-23.95,0v35.96c5.04-4.81,18.91-4.81,23.95,0Z" fill="#fff" stroke-width="0"/><path d="m59.45,15h-2.45v-4c0-.4-.24-.76-.61-.92-9.15-3.9-17.35-4.02-24.39-.36-7.04-3.65-15.24-3.53-24.39.36-.37.16-.61.52-.61.92v4h-2.45c-2.51,0-4.55,2.04-4.55,4.55v28.9c0,2.51,2.04,4.55,4.55,4.55h21.53c.48,2.83,2.95,5,5.92,5s5.44-2.17,5.92-5h21.53c2.51,0,4.55-2.04,4.55-4.55v-28.9c0-2.51-2.04-4.55-4.55-4.55Zm-23.45,31h-.14s.09-.04.14-.06v.06Zm2-.73c1.28-.35,2.63-.58,4-.71v6.44h-4v-5.73Zm6-.83c3.16-.06,6.25.46,8.65,1.56h-8.65v-1.56Zm11-32.78v33.32c-3.02-1.86-7.44-2.69-11.84-2.49-.05,0-.1-.03-.16-.03-.08,0-.15.03-.23.05-2.08.12-4.15.48-6.06,1.07-.05.01-.1.03-.14.05-1.28.4-2.49.91-3.57,1.52V11.44c6.31-3.24,13.71-3.16,22,.23Zm-46,0c8.29-3.39,15.69-3.47,22-.23v33.06c-5.58-3.29-16.31-3.07-22,.48V11.67Zm20.56,34.33H11.35c5.13-2.38,13.62-2.44,18.21,0Zm2.44,10c-2.21,0-4-1.79-4-4,0-.55-.45-1-1-1H4.55c-1.41,0-2.55-1.14-2.55-2.55v-28.9c0-1.41,1.14-2.55,2.55-2.55h2.45v30c0,.12.03.24.07.35.01.03.03.06.05.1.04.08.08.14.14.21.02.03.04.05.07.08.08.08.18.15.28.19.12.05.25.08.39.08h28v4c0,2.21-1.79,4-4,4Zm30-7.55c0,1.41-1.14,2.55-2.55,2.55h-15.45v-3h12c.14,0,.27-.03.39-.08.11-.05.2-.11.28-.19.03-.02.05-.05.07-.08.06-.06.1-.13.14-.21.02-.03.03-.06.05-.1.04-.11.07-.23.07-.35v-30h2.45c1.41,0,2.55,1.14,2.55,2.55v28.9Z" fill="#4c241d" stroke-width="0"/><path d="m15,17h10c.55,0,1-.45,1-1s-.45-1-1-1h-10c-.55,0-1,.45-1,1s.45,1,1,1Z" fill="#4c241d" stroke-width="0"/><path d="m15,23h10c.55,0,1-.45,1-1s-.45-1-1-1h-10c-.55,0-1,.45-1,1s.45,1,1,1Z" fill="#4c241d" stroke-width="0"/><path d="m15,29h10c.55,0,1-.45,1-1s-.45-1-1-1h-10c-.55,0-1,.45-1,1s.45,1,1,1Z" fill="#4c241d" stroke-width="0"/><path d="m26,34c0-.55-.45-1-1-1h-10c-.55,0-1,.45-1,1s.45,1,1,1h10c.55,0,1-.45,1-1Z" fill="#4c241d" stroke-width="0"/><path d="m39,17h10c.55,0,1-.45,1-1s-.45-1-1-1h-10c-.55,0-1,.45-1,1s.45,1,1,1Z" fill="#4c241d" stroke-width="0"/><path d="m39,23h10c.55,0,1-.45,1-1s-.45-1-1-1h-10c-.55,0-1,.45-1,1s.45,1,1,1Z" fill="#4c241d" stroke-width="0"/><path d="m39,29h10c.55,0,1-.45,1-1s-.45-1-1-1h-10c-.55,0-1,.45-1,1s.45,1,1,1Z" fill="#4c241d" stroke-width="0"/><path d="m39,35h10c.55,0,1-.45,1-1s-.45-1-1-1h-10c-.55,0-1,.45-1,1s.45,1,1,1Z" fill="#4c241d" stroke-width="0"/></svg>
