<?xml version="1.0" encoding="UTF-8"?>
<svg xmlns="http://www.w3.org/2000/svg" xmlns:xlink="http://www.w3.org/1999/xlink" width="25px" height="24px" viewBox="0 0 25 24" version="1.1">
    <!-- Generator: Sketch 51.3 (57544) - http://www.bohemiancoding.com/sketch -->
    <title>181 - Menu</title>
    <desc>Created with Sketch.</desc>
    <defs/>
    <g id="Page-1" stroke="none" stroke-width="1" fill="none" fill-rule="evenodd">
        <g id="181---Menu" transform="translate(0.000000, 1.000000)">
            <rect id="Rectangle-path" fill="#F4F4F4" fill-rule="nonzero" x="2" y="0" width="22" height="22" rx="2"/>
            <path d="M18.9883,7 L11.9883,7 C11.4360153,7 10.9883,6.55228475 10.9883,6 C10.9883,5.44771525 11.4360153,5 11.9883,5 L18.9883,5 C19.5405847,5 19.9883,5.44771525 19.9883,6 C19.9883,6.55228475 19.5405847,7 18.9883,7 Z" id="Shape" fill="#6FC1EF" fill-rule="nonzero"/>
            <path d="M18.9883,12 L11.9883,12 C11.4360153,12 10.9883,11.5522847 10.9883,11 C10.9883,10.4477153 11.4360153,10 11.9883,10 L18.9883,10 C19.5405847,10 19.9883,10.4477153 19.9883,11 C19.9883,11.5522847 19.5405847,12 18.9883,12 Z" id="Shape" fill="#6FC1EF" fill-rule="nonzero"/>
            <path d="M18.9883,17 L11.9883,17 C11.4360153,17 10.9883,16.5522847 10.9883,16 C10.9883,15.4477153 11.4360153,15 11.9883,15 L18.9883,15 C19.5405847,15 19.9883,15.4477153 19.9883,16 C19.9883,16.5522847 19.5405847,17 18.9883,17 Z" id="Shape" fill="#6FC1EF" fill-rule="nonzero"/>
            <path d="M1.9883,2 C1.9883,0.8954305 2.8837305,2.22044605e-16 3.9883,0 L21.9883,0 C23.0928695,0 23.9883,0.8954305 23.9883,2 L23.9883,20 C23.9883,21.1045695 23.0928695,22 21.9883,22 L3.9883,22 C2.8837305,22 1.9883,21.1045695 1.9883,20" id="Shape" stroke="#40464C" stroke-width="2" stroke-linecap="round" stroke-linejoin="round"/>
            <path d="M1.9883,2 C2.02632746,1.99498665 2.06422036,2.01014381 2.0883,2.04 L1.8883,2.04 C1.91237964,2.01014381 1.95027254,1.99498665 1.9883,2 Z" id="Shape" fill="#40464C" fill-rule="nonzero"/>
            <path d="M1.9883,16 C2.53992365,16.0015928 2.98670721,16.4483764 2.9883,17 L2.9883,20 L0.9883,20 L0.9883,17 C0.98989279,16.4483764 1.43667635,16.0015928 1.9883,16 Z" id="Shape" fill="#40464C" fill-rule="nonzero"/>
            <path d="M0.9883,2.04 L2.9883,2.04 L2.9883,10 C2.9883,10.5522847 2.54058475,11 1.9883,11 C1.43601525,11 0.9883,10.5522847 0.9883,10 L0.9883,2.04 Z" id="Shape" fill="#40464C" fill-rule="nonzero"/>
            <path d="M7.9883,7 L6.9883,7 C6.43601525,7 5.9883,6.55228475 5.9883,6 C5.9883,5.44771525 6.43601525,5 6.9883,5 L7.9883,5 C8.54058475,5 8.9883,5.44771525 8.9883,6 C8.9883,6.55228475 8.54058475,7 7.9883,7 Z" id="Shape" fill="#F4608A" fill-rule="nonzero"/>
            <path d="M7.9883,12 L6.9883,12 C6.43601525,12 5.9883,11.5522847 5.9883,11 C5.9883,10.4477153 6.43601525,10 6.9883,10 L7.9883,10 C8.54058475,10 8.9883,10.4477153 8.9883,11 C8.9883,11.5522847 8.54058475,12 7.9883,12 Z" id="Shape" fill="#F4608A" fill-rule="nonzero"/>
            <path d="M7.9883,17 L6.9883,17 C6.43601525,17 5.9883,16.5522847 5.9883,16 C5.9883,15.4477153 6.43601525,15 6.9883,15 L7.9883,15 C8.54058475,15 8.9883,15.4477153 8.9883,16 C8.9883,16.5522847 8.54058475,17 7.9883,17 Z" id="Shape" fill="#F4608A" fill-rule="nonzero"/>
            <path d="M1.9883,2 C1.9883,0.8954305 2.8837305,2.22044605e-16 3.9883,0 L21.9883,0 C23.0928695,0 23.9883,0.8954305 23.9883,2 L23.9883,20 C23.9883,21.1045695 23.0928695,22 21.9883,22 L3.9883,22 C2.8837305,22 1.9883,21.1045695 1.9883,20" id="Shape" stroke="#40464C" stroke-width="2" stroke-linecap="round" stroke-linejoin="round"/>
        </g>
    </g>
</svg>
