<?xml version="1.0" encoding="utf-8"?>
<!-- Generator: Adobe Illustrator 23.0.3, SVG Export Plug-In . SVG Version: 6.00 Build 0)  -->
<svg version="1.1" id="Layer_1" xmlns="http://www.w3.org/2000/svg" xmlns:xlink="http://www.w3.org/1999/xlink" x="0px" y="0px"
	 viewBox="0 0 25 24" style="enable-background:new 0 0 25 24;" xml:space="preserve">
<style type="text/css">
	.st0{fill:#536882;stroke:#000000;stroke-width:0.25;stroke-miterlimit:10;}
	.st1{fill:#40464C;}
	.st2{fill:#FFFFFF;stroke:#A35900;stroke-width:0.25;stroke-miterlimit:10;}
</style>
<title>181 - Menu</title>
<desc>Created with Sketch.</desc>
<path id="Shape" class="st0" d="M21.5,6.5H11.3c-0.8,0-1.5-0.6-1.5-1.4s0.7-1.4,1.5-1.4h10.2c0.8,0,1.5,0.6,1.5,1.4
	S22.3,6.5,21.5,6.5z"/>
<path class="st0" d="M21.5,13.4H11.3c-0.8,0-1.5-0.6-1.5-1.4s0.7-1.4,1.5-1.4h10.2c0.8,0,1.5,0.6,1.5,1.4S22.3,13.4,21.5,13.4z"/>
<path class="st0" d="M21.5,20.3H11.3c-0.8,0-1.5-0.6-1.5-1.4c0-0.8,0.7-1.4,1.5-1.4h10.2c0.8,0,1.5,0.6,1.5,1.4
	C23,19.7,22.3,20.3,21.5,20.3z"/>
<path class="st1" d="M2.5,4C2.6,4,2.6,4,2.5,4L2.5,4C2.5,4,2.5,4,2.5,4z"/>
<path class="st2" d="M5.5,6.5H4c-0.8,0-1.5-0.6-1.5-1.4S3.2,3.7,4,3.7h1.5c0.8,0,1.5,0.6,1.5,1.4S6.3,6.5,5.5,6.5z"/>
<path class="st2" d="M5.5,13.4H4c-0.8,0-1.5-0.6-1.5-1.4s0.7-1.4,1.5-1.4h1.5c0.8,0,1.5,0.6,1.5,1.4S6.3,13.4,5.5,13.4z"/>
<path class="st2" d="M5.5,20.3H4c-0.8,0-1.5-0.6-1.5-1.4c0-0.8,0.7-1.4,1.5-1.4h1.5c0.8,0,1.5,0.6,1.5,1.4
	C6.9,19.7,6.3,20.3,5.5,20.3z"/>
</svg>
