<?xml version="1.0" encoding="UTF-8"?>
<svg width="60px" height="60px" viewBox="0 0 60 60" version="1.1" xmlns="http://www.w3.org/2000/svg" xmlns:xlink="http://www.w3.org/1999/xlink">
    <!-- Generator: Sketch 49.3 (51167) - http://www.bohemiancoding.com/sketch -->
    <title>008 - Prayer Room</title>
    <desc>Created with Sketch.</desc>
    <defs></defs>
    <g id="Page-1" stroke="none" stroke-width="1" fill="none" fill-rule="evenodd">
        <g id="008---Prayer-Room" fill-rule="nonzero">
            <path d="M52.5,22 C51.8365057,21.998815 51.1997537,22.2614303 50.73,22.73 C50.5875495,22.870624 50.463251,23.0285167 50.36,23.2 C50.2546987,23.3760633 50.1707726,23.5640578 50.11,23.76 L50.09,23.75 C50.54,22.4 52.36,15.79 47,11.22 C41,6.11 30,8.67 30,1 C30.1119227,2.86112891 29.1636872,4.62600798 27.55,5.56 C27.0458141,5.87865639 26.5095355,6.14344395 25.95,6.35 L25.94,6.36 C22.19,7.84 16.66,8.1 13,11.22 C12.88,11.32 12.76,11.43 12.65,11.54 C7.83,15.99 9.4,22.16 9.88,23.66 L9.86,23.67 C9.73487889,23.3170788 9.53342281,22.9961148 9.27,22.73 C8.61131602,22.0707719 7.64064047,21.8326257 6.75164364,22.1121448 C5.86264682,22.3916639 5.20291071,23.1424454 5.04,24.06 C5.01137122,24.2048722 4.99796503,24.3523402 5,24.5 L4.9997988,59 L55,59 L55,24.5 C55,23.1192881 53.8807119,22 52.5,22 Z" id="Shape" fill="#FFA800"></path>
            <path d="M52,26.5 L52,59 L4.9997988,59 L5,24.5 C4.99796503,24.3523402 5.01137122,24.2048722 5.04,24.06 C5.17110942,23.3232369 5.6263754,22.6843959 6.28,22.32 C6.92328029,21.9570988 7.69432502,21.8979871 8.38540593,22.1585902 C9.07648683,22.4191933 9.61651476,22.972704 9.86,23.67 L9.88,23.66 C9.4,22.16 7.83,15.99 12.65,11.54 C12.76,11.43 12.88,11.32 13,11.22 C16.66,8.1 22.19,7.84 25.94,6.36 L25.95,6.35 C26.5095355,6.14344395 27.0458141,5.87865639 27.55,5.56 C29.84,10.12 38.8,8.79 44,13.22 C49.36,17.79 47.54,24.4 47.09,25.75 L47.11,25.76 C47.2282244,25.37064 47.4412628,25.0167212 47.73,24.73 C48.1997537,24.2614303 48.8365057,23.998815 49.5,24 C49.6817134,23.9990726 49.8629222,24.0192069 50.04,24.06 C50.05,24.06 50.07,24.07 50.08,24.07 C51.2050613,24.3383352 51.999172,25.3433816 52,26.5 Z" id="Shape" fill="#FEDD0A"></path>
            <path d="M45,56 L45,59 L16.94,59 C15.34,59 13.85,58.99 13.26,57.4 C12.8866724,56.4094601 12.9224749,55.3111336 13.3595194,54.3470098 C13.7965639,53.3828859 14.598989,52.6320751 15.59,52.26 C15.79,52.19 16.01,52.1 16.24,52 C18.0786922,51.217665 19.8511316,50.2879704 21.54,49.22 C21.4156175,48.9012137 21.3512031,48.5621904 21.35,48.22 C21.3520251,47.8597724 21.4233202,47.5032967 21.56,47.17 L28.31,30.68 C28.7620032,29.5717765 28.9962722,28.386851 29,27.19 C28.9990593,26.2378186 29.3079386,25.3111807 29.88,24.55 C30.4409524,23.7950588 31.2592806,23.2720404 32.18,23.08 C33.359627,22.8355752 34.5866268,23.1348487 35.5212429,23.8949513 C36.4558589,24.655054 36.9989008,25.7953166 37,27 L37,40 C36.9043367,43.867793 35.3713342,47.5612596 32.7,50.36 C32.4515076,50.6583354 32.3981663,51.0735425 32.5631802,51.4250008 C32.7281941,51.776459 33.0817319,52.0006314 33.47,52 L41,52 C43.209139,52 45,53.790861 45,56 Z" id="Shape" fill="#FEDD0A"></path>
            <circle id="Oval" fill="#FEDD0A" cx="26.5" cy="18.5" r="6.5"></circle>
            <path d="M7.5,22 C8.04272167,21.9989528 8.57039176,22.1783606 9,22.51 C8.49274524,22.8841402 8.14897612,23.439184 8.04,24.06 C8.01137122,24.2048722 7.99796503,24.3523402 8,24.5 L8,59 L5,59 L5,24.5 C4.99796503,24.3523402 5.01137122,24.2048722 5.04,24.06 C5.17110942,23.3232369 5.6263754,22.6843959 6.28,22.32 C6.65296708,22.1116434 7.07278276,22.0015278 7.5,22 Z" id="Shape" fill="#FFFFFF"></path>
            <path d="M30,1 C29.9230574,2.43344095 30.4700406,3.83007158 31.5,4.83 C31.209252,5.10532276 30.8909037,5.34994835 30.55,5.56 C30.0458141,5.87865639 29.5095355,6.14344395 28.95,6.35 L28.94,6.36 C25.19,7.84 19.66,8.1 16,11.22 C15.88,11.32 15.76,11.43 15.65,11.54 C10.83,15.99 12.4,22.16 12.88,23.66 L12.86,23.67 C12.7348789,23.3170788 12.5334228,22.9961148 12.27,22.73 C11.8002463,22.2614303 11.1634943,21.998815 10.5,22 C10.161868,21.9971095 9.82725795,22.0688116 9.52,22.21 C8.59689844,18.3499237 9.78794345,14.289716 12.65,11.54 C12.76,11.43 12.88,11.32 13,11.22 C16.66,8.1 22.19,7.84 25.94,6.36 L25.95,6.35 C26.5095355,6.14344395 27.0458141,5.87865639 27.55,5.56 C29.1636872,4.62600798 30.1119227,2.86112891 30,1 Z" id="Shape" fill="#FFFFFF"></path>
            <path d="M9.52,22.21 C9.60992017,22.7003084 9.73015078,23.1845706 9.88,23.66 L9.86,23.67 C9.73487889,23.3170788 9.53342281,22.9961148 9.27,22.73 C9.18921905,22.6460274 9.09855795,22.5721554 9,22.51 C9.08934467,22.4409791 9.18285498,22.3775257 9.28,22.32 C9.35805247,22.2792251 9.43815921,22.2425095 9.52,22.21 Z" id="Shape" fill="#FFFFFF"></path>
            <polygon id="Shape" fill="#FFFFFF" points="6 24.5 6 37.5 6 59 4 59 4 37.5 4 24.5"></polygon>
            <path d="M5,33.5 C5.40626507,33.5023626 5.77358004,33.2586962 5.92937095,32.8834815 C6.08516186,32.5082668 5.99845995,32.0760905 5.71,31.79 L5.56,31.67 C5.50427287,31.6321227 5.44373808,31.6018554 5.38,31.58 C5.32333758,31.5511123 5.26266255,31.5308873 5.2,31.52 C5.13385548,31.5088692 5.06703885,31.5021875 5,31.5 C4.73527314,31.5038804 4.48174298,31.607435 4.29,31.79 C4.19960316,31.8856071 4.12832305,31.9976187 4.08,32.12 C3.92912342,32.4929737 4.01135194,32.9197788 4.29,33.21 C4.38560709,33.3003968 4.49761868,33.371677 4.62,33.42 C4.74022231,33.471241 4.86932274,33.49842 5,33.5 Z" id="Shape" fill="#000000"></path>
            <path d="M1,60 L49,60 C49.5522847,60 50,59.5522847 50,59 C50,58.4477153 49.5522847,58 49,58 L46,58 L46,56 C45.9966939,53.2399468 43.7600532,51.0033061 41,51 L33.454,51.018 C36.2919602,48.0418228 37.9136142,44.1114701 38,40 L38,27 C38.0045766,24.2855343 35.8396986,22.0646911 33.126,22 C34.7951105,18.8618917 34.0480162,14.9844523 31.3324024,12.6911805 C28.6167887,10.3979088 24.6689958,10.3106268 21.854681,12.481637 C19.0403662,14.6526472 18.1226326,18.4932789 19.6514187,21.7020897 C21.1802047,24.9109004 24.7409792,26.6178192 28.2,25.8 C28.0732603,26.2516602 28.0060255,26.7179333 28,27.187 C28.0010291,28.2553995 27.7927752,29.3136554 27.387,30.302 L20.638,46.793 C20.3839211,47.4144404 20.2997089,48.0922794 20.394,48.757 C18.9334768,49.6400597 17.4115835,50.4173816 15.84,51.083 C15.634,51.172 15.44,51.253 15.24,51.323 C14.0007937,51.7882666 12.9972788,52.7269221 12.4503737,53.9323266 C11.9034685,55.1377311 11.858008,56.5110663 12.324,57.75 C12.36,57.844 12.409,57.913 12.449,58 L6,58 L6,36.5 C6,35.9477153 5.55228475,35.5 5,35.5 C4.44771525,35.5 4,35.9477153 4,36.5 L4,58 L1,58 C0.44771525,58 6.76353751e-17,58.4477153 0,59 C-6.76353751e-17,59.5522847 0.44771525,60 1,60 Z M21,18.5 C21,15.4624339 23.4624339,13 26.5,13 C29.5375661,13 32,15.4624339 32,18.5 C32,21.5375661 29.5375661,24 26.5,24 C23.4638047,23.9966932 21.0033068,21.5361953 21,18.5 Z M14.193,57.046 C13.612812,55.5080578 14.3828644,53.7901798 15.917,53.2 C16.139,53.123 16.382,53.024 16.622,52.919 C18.1992724,52.251679 19.7288688,51.4768572 21.2,50.6 C22.0404152,51.6351376 23.3643437,52.150471 24.6834159,51.9559042 C26.002488,51.7613375 27.1212448,50.8857015 27.627,49.652 L33.921,34.377 C34.0571182,34.0465293 34.0065926,33.6685436 33.7884557,33.3854265 C33.5703188,33.1023094 33.2177108,32.957073 32.8634557,33.0044265 C32.5092006,33.05178 32.2071182,33.2845293 32.071,33.615 L25.779,48.9 C25.5053278,49.5670292 24.854986,50.0019082 24.134,50 C23.5404955,50.0044502 22.9850463,49.7082858 22.658,49.213 C22.6018623,49.128819 22.5526986,49.0401906 22.511,48.948 C22.4929054,48.8865929 22.4691363,48.8270028 22.44,48.77 C22.3101413,48.3705273 22.3275224,47.9377715 22.489,47.55 L29.236,31.058 C29.7408112,29.8295291 30.0003545,28.5141472 30,27.186 C29.9533127,25.7128427 30.9471033,24.4092233 32.38,24.064 C33.2650444,23.8770549 34.1871918,24.0994363 34.8897418,24.6692393 C35.5922919,25.2390423 36.0002309,26.0954272 36,27 L36,40 C35.9073715,43.6223262 34.4647151,47.0793517 31.955,49.693 C31.4366504,50.2735726 31.3124976,51.1064966 31.639,51.813 C31.9579533,52.5375341 32.6763773,53.003783 33.468,53 L41,53 C42.6568542,53 44,54.3431458 44,56 L44,58 L16.967,58 C15.212,58 14.519,57.918 14.193,57.046 Z" id="Shape" fill="#000000"></path>
            <path d="M59,58 L56,58 L56,24.5 C56,22.5670034 54.4329966,21 52.5,21 C52.208344,21.0032808 51.9183124,21.0439457 51.637,21.121 C52.2154297,17.1195709 50.7111926,13.0997245 47.648,10.461 C45.023,8.225 41.556,7.368 38.5,6.612 C33.709,5.429 31,4.585 31,1 C31,0.44771525 30.5522847,3.38176876e-17 30,0 C29.4477153,-3.38176876e-17 29,0.44771525 29,1 C29,4.585 26.291,5.429 21.5,6.612 C18.44,7.368 14.973,8.225 12.348,10.461 C9.28480741,13.0997245 7.78057031,17.1195709 8.359,21.121 C8.07898103,21.0442834 7.79031524,21.0036215 7.5,21 C6.57174229,21 5.68150359,21.3687489 5.02512627,22.0251263 C4.36874894,22.6815036 4,23.5717423 4,24.5 L4,28.5 C4,29.0522847 4.44771525,29.5 5,29.5 C5.55228475,29.5 6,29.0522847 6,28.5 L6,24.5 C6,23.6715729 6.67157288,23 7.5,23 C8.32842712,23 9,23.6715729 9,24.5 C9,25.0522847 9.44771525,25.5 10,25.5 C10.5522847,25.5 11,25.0522847 11,24.5 C11,24.387 10.977,24.281 10.967,24.171 C11.0048055,23.9935122 10.9926906,23.8090199 10.932,23.638 C10.821,23.351 8.278,16.558 13.648,11.983 C15.914,10.054 19,9.291 21.984,8.554 C25.165,7.768 28.413,6.954 30,4.6 C31.587,6.959 34.835,7.773 38.016,8.559 C41,9.296 44.086,10.059 46.352,11.988 C51.717,16.559 49.183,23.345 49.068,23.642 C49.0063246,23.8138544 48.9941967,23.9995845 49.033,24.178 C49.023,24.287 49,24.393 49,24.505 C49,25.0572847 49.4477153,25.505 50,25.505 C50.5522847,25.505 51,25.0572847 51,24.505 C51,23.6765729 51.6715729,23.005 52.5,23.005 C53.3284271,23.005 54,23.6765729 54,24.505 L54,58 L53,58 C52.4477153,58 52,58.4477153 52,59 C52,59.5522847 52.4477153,60 53,60 L59,60 C59.5522847,60 60,59.5522847 60,59 C60,58.4477153 59.5522847,58 59,58 Z" id="Shape" fill="#000000"></path>
        </g>
    </g>
</svg>