<?xml version="1.0" encoding="UTF-8"?>
<svg width="60px" height="61px" viewBox="0 0 60 61" version="1.1" xmlns="http://www.w3.org/2000/svg" xmlns:xlink="http://www.w3.org/1999/xlink">
    <!-- Generator: Sketch 41.1 (35376) - http://www.bohemiancoding.com/sketch -->
    <title>29 -Prayer- (religion, church, pray, yellow)</title>
    <desc>Created with Sketch.</desc>
    <defs></defs>
    <g id="Page-1" stroke="none" stroke-width="1" fill="none" fill-rule="evenodd">
        <g id="Icons" transform="translate(-1080.000000, -590.000000)">
            <g id="29--Prayer--(religion,-church,-pray,-yellow)" transform="translate(1081.000000, 591.000000)">
                <path d="M10,20.007 C11.167,18.84 13.076,18.84 14.243,20.007 L23.773,28.971 C25.832,30.908 27,33.61 27,36.438 L27,47.007 C21.473,47.007 18,43.534 18,38.007 L18,33.007 L10,24.25 C8.833,23.083 8.833,21.174 10,20.007" id="Fill-19" fill="#FFE100"></path>
                <path d="M10,24.2496 C8.833,23.0826 8.833,21.1736 10,20.0066 C10.552,19.4546 11.272,19.1726 12,19.1436 L12,7.1386 C12,5.6876 11.028,4.3496 9.605,4.0666 C7.693,3.6876 6,5.1596 6,7.0066 L6,25.8386 C6,26.4836 6.523,27.0066 7.168,27.0066 L12,27.0066 L12,26.4386 L10,24.2496 Z" id="Fill-21" fill="#FFE100"></path>
                <path d="M23.7727,28.9713 C23.8527,29.0463 23.9227,29.1303 23.9997,29.2083 L23.9997,15.0073 C23.9997,13.3573 22.6497,12.0073 20.9997,12.0073 C19.3497,12.0073 17.9997,13.3573 17.9997,15.0073 L17.9997,23.5413 L23.7727,28.9713 Z" id="Fill-23" fill="#FFE100"></path>
                <path d="M18,38.007 L18,33.007 L12.519,27.007 L7.168,27.007 C6.523,27.007 6,26.484 6,25.839 L6,3.138 C6,1.687 5.028,0.349 3.604,0.067 C1.693,-0.312 0,1.159 0,3.007 L0,27.007 C0,39.948 12,48.007 12,48.007 L12,58.007 L27,58.007 L27,47.007 C21.473,47.007 18,43.534 18,38.007" id="Fill-25" fill="#FFE100"></path>
                <path d="M13.1614,19.3241 C13.1744,19.3291 13.1874,19.3311 13.1994,19.3351 C13.3624,19.3971 13.5174,19.4781 13.6684,19.5691 C13.6964,19.5861 13.7264,19.5961 13.7544,19.6141 C13.9274,19.7261 14.0914,19.8561 14.2424,20.0071 L18.0004,23.5411 L18.0004,11.0071 C18.0004,9.3571 16.6504,8.0071 15.0004,8.0071 C13.3504,8.0071 12.0004,9.3571 12.0004,11.0071 L12.0004,19.1431 L12.0004,19.1431 C12.3934,19.1281 12.7874,19.1871 13.1614,19.3241" id="Fill-27" fill="#FFE100"></path>
                <path d="M48,20.007 C46.833,18.84 44.924,18.84 43.757,20.007 L34.227,28.971 C32.168,30.908 31,33.61 31,36.438 L31,47.007 C36.527,47.007 40,43.534 40,38.007 L40,33.007 L48,24.25 C49.167,23.083 49.167,21.174 48,20.007" id="Fill-29" fill="#FFE100"></path>
                <path d="M48,24.2496 C49.167,23.0826 49.167,21.1736 48,20.0066 C47.448,19.4546 46.728,19.1726 46,19.1436 L46,7.1386 C46,5.6876 46.972,4.3496 48.395,4.0666 C50.307,3.6876 52,5.1596 52,7.0066 L52,25.8386 C52,26.4836 51.477,27.0066 50.832,27.0066 L46,27.0066 L46,26.4386 L48,24.2496 Z" id="Fill-31" fill="#FFE100"></path>
                <path d="M34.2273,28.9713 C34.1473,29.0463 34.0773,29.1303 34.0003,29.2083 L34.0003,15.0073 C34.0003,13.3573 35.3503,12.0073 37.0003,12.0073 C38.6503,12.0073 40.0003,13.3573 40.0003,15.0073 L40.0003,23.5413 L34.2273,28.9713 Z" id="Fill-33" fill="#FFE100"></path>
                <path d="M40,38.007 L40,33.007 L45.481,27.007 L50.832,27.007 C51.477,27.007 52,26.484 52,25.839 L52,3.138 C52,1.687 52.972,0.349 54.396,0.067 C56.307,-0.312 58,1.159 58,3.007 L58,27.007 C58,39.948 46,48.007 46,48.007 L46,58.007 L31,58.007 L31,47.007 C36.527,47.007 40,43.534 40,38.007" id="Fill-35" fill="#FFE100"></path>
                <path d="M46,58.007 L46,47.986 C46,47.986 58,39.927 58,26.986 L58,2.986 C58,1.415 56.772,0.128 55.231,0.007 C55.702,0.537 56,1.225 56,1.986 L56,25.986 C56,38.927 44,46.986 44,46.986 L44,58.007 L46,58.007 Z" id="Fill-37" fill="#FFA800"></path>
                <path d="M12,58.007 L12,47.986 C12,47.986 0,39.927 0,26.986 L0,2.986 C0,1.415 1.228,0.128 2.769,0.007 C2.298,0.537 2,1.225 2,1.986 L2,25.986 C2,38.927 14,46.986 14,46.986 L14,58.007 L12,58.007 Z" id="Fill-39" fill="#FFFFFF"></path>
                <path d="M44.8386,19.3241 C44.8256,19.3291 44.8126,19.3311 44.8006,19.3351 C44.6376,19.3971 44.4826,19.4781 44.3316,19.5691 C44.3036,19.5861 44.2736,19.5961 44.2456,19.6141 C44.0726,19.7261 43.9086,19.8561 43.7576,20.0071 L39.9996,23.5411 L39.9996,11.0071 C39.9996,9.3571 41.3496,8.0071 42.9996,8.0071 C44.6496,8.0071 45.9996,9.3571 45.9996,11.0071 L45.9996,19.1431 L45.9996,19.1431 C45.6066,19.1281 45.2126,19.1871 44.8386,19.3241" id="Fill-41" fill="#FFE100"></path>
                <path d="M10,20.007 C11.167,18.84 13.076,18.84 14.243,20.007 L23.773,28.971 C25.832,30.908 27,33.61 27,36.438 L27,47.007 C21.473,47.007 18,43.534 18,38.007 L18,33.007 L10,24.25 C8.833,23.083 8.833,21.174 10,20.007 Z" id="Stroke-844" stroke="#000000" stroke-width="2"></path>
                <path d="M10,24.2496 C8.833,23.0826 8.833,21.1736 10,20.0066 C10.552,19.4546 11.272,19.1726 12,19.1436 L12,7.1386 C12,5.6876 11.028,4.3496 9.605,4.0666 C7.693,3.6876 6,5.1596 6,7.0066 L6,25.8386 C6,26.4836 6.523,27.0066 7.168,27.0066 L12,27.0066 L12,26.4386 L10,24.2496 Z" id="Stroke-845" stroke="#000000" stroke-width="2"></path>
                <path d="M23.7727,28.9713 C23.8527,29.0463 23.9227,29.1303 23.9997,29.2083 L23.9997,15.0073 C23.9997,13.3573 22.6497,12.0073 20.9997,12.0073 C19.3497,12.0073 17.9997,13.3573 17.9997,15.0073 L17.9997,23.5413 L23.7727,28.9713 Z" id="Stroke-846" stroke="#000000" stroke-width="2"></path>
                <path d="M18,38.007 L18,33.007 L12.519,27.007 L7.168,27.007 C6.523,27.007 6,26.484 6,25.839 L6,3.138 C6,1.687 5.028,0.349 3.604,0.067 C1.693,-0.312 0,1.159 0,3.007 L0,27.007 C0,39.948 12,48.007 12,48.007 L12,58.007 L27,58.007 L27,47.007 C21.473,47.007 18,43.534 18,38.007 Z" id="Stroke-847" stroke="#000000" stroke-width="2"></path>
                <path d="M13.1614,19.3241 C13.1744,19.3291 13.1874,19.3311 13.1994,19.3351 C13.3624,19.3971 13.5174,19.4781 13.6684,19.5691 C13.6964,19.5861 13.7264,19.5961 13.7544,19.6141 C13.9274,19.7261 14.0914,19.8561 14.2424,20.0071 L18.0004,23.5411 L18.0004,11.0071 C18.0004,9.3571 16.6504,8.0071 15.0004,8.0071 C13.3504,8.0071 12.0004,9.3571 12.0004,11.0071 L12.0004,19.1431 L12.0004,19.1431 C12.3934,19.1281 12.7874,19.1871 13.1614,19.3241 Z" id="Stroke-848" stroke="#000000" stroke-width="2"></path>
                <path d="M48,20.007 C46.833,18.84 44.924,18.84 43.757,20.007 L34.227,28.971 C32.168,30.908 31,33.61 31,36.438 L31,47.007 C36.527,47.007 40,43.534 40,38.007 L40,33.007 L48,24.25 C49.167,23.083 49.167,21.174 48,20.007 Z" id="Stroke-849" stroke="#000000" stroke-width="2"></path>
                <path d="M48,24.2496 C49.167,23.0826 49.167,21.1736 48,20.0066 C47.448,19.4546 46.728,19.1726 46,19.1436 L46,7.1386 C46,5.6876 46.972,4.3496 48.395,4.0666 C50.307,3.6876 52,5.1596 52,7.0066 L52,25.8386 C52,26.4836 51.477,27.0066 50.832,27.0066 L46,27.0066 L46,26.4386 L48,24.2496 Z" id="Stroke-850" stroke="#000000" stroke-width="2"></path>
                <path d="M34.2273,28.9713 C34.1473,29.0463 34.0773,29.1303 34.0003,29.2083 L34.0003,15.0073 C34.0003,13.3573 35.3503,12.0073 37.0003,12.0073 C38.6503,12.0073 40.0003,13.3573 40.0003,15.0073 L40.0003,23.5413 L34.2273,28.9713 Z" id="Stroke-851" stroke="#000000" stroke-width="2"></path>
                <path d="M40,38.007 L40,33.007 L45.481,27.007 L50.832,27.007 C51.477,27.007 52,26.484 52,25.839 L52,3.138 C52,1.687 52.972,0.349 54.396,0.067 C56.307,-0.312 58,1.159 58,3.007 L58,27.007 C58,39.948 46,48.007 46,48.007 L46,58.007 L31,58.007 L31,47.007 C36.527,47.007 40,43.534 40,38.007 Z" id="Stroke-852" stroke="#000000" stroke-width="2"></path>
                <path d="M44.8386,19.3241 C44.8256,19.3291 44.8126,19.3311 44.8006,19.3351 C44.6376,19.3971 44.4826,19.4781 44.3316,19.5691 C44.3036,19.5861 44.2736,19.5961 44.2456,19.6141 C44.0726,19.7261 43.9086,19.8561 43.7576,20.0071 L39.9996,23.5411 L39.9996,11.0071 C39.9996,9.3571 41.3496,8.0071 42.9996,8.0071 C44.6496,8.0071 45.9996,9.3571 45.9996,11.0071 L45.9996,19.1431 L45.9996,19.1431 C45.6066,19.1281 45.2126,19.1871 44.8386,19.3241 Z" id="Stroke-853" stroke="#000000" stroke-width="2"></path>
            </g>
        </g>
    </g>
</svg>