<?xml version="1.0" encoding="UTF-8"?>
<svg xmlns="http://www.w3.org/2000/svg" xmlns:xlink="http://www.w3.org/1999/xlink" width="46px" height="60px" viewBox="0 0 46 60" version="1.1">
    <!-- Generator: Sketch 51.3 (57544) - http://www.bohemiancoding.com/sketch -->
    <title>005 - Prayer Mat</title>
    <desc>Created with Sketch.</desc>
    <defs/>
    <g id="Page-1" stroke="none" stroke-width="1" fill="none" fill-rule="evenodd">
        <g id="005---Prayer-Mat" transform="translate(0.000000, 1.000000)">
            <path d="M44.04,3 L1.96,3 C1.42980664,3 1,3.42980664 1,3.96 L1,54.04 C1,54.5701934 1.42980664,55 1.96,55 L44.04,55 C44.5701934,55 45,54.5701934 45,54.04 L45,3.96 C45,3.42980664 44.5701934,3 44.04,3 Z" id="Shape" fill="#FF8401" fill-rule="nonzero"/>
            <path d="M41.04,3 L1.96,3 C1.42980664,3 1,3.42980664 1,3.96 L1,54.04 C1,54.5701934 1.42980664,55 1.96,55 L41.04,55 C41.5701934,55 42,54.5701934 42,54.04 L42,3.96 C42,3.42980664 41.5701934,3 41.04,3 Z" id="Shape" fill="#FFDC00" fill-rule="nonzero"/>
            <path d="M29.046,16.527 L23,13 L16.954,16.527 C13.2673205,18.6773474 11.0002172,22.6240263 11,26.892 L11,44 C11,44.5522847 11.4477153,45 12,45 L34,45 C34.5522847,45 35,44.5522847 35,44 L35,26.892 C34.9997828,22.6240263 32.7326795,18.6773474 29.046,16.527 Z" id="Shape" fill="#FFFFFF" fill-rule="nonzero"/>
            <path d="M15,40 L15,26.893 C14.9999274,24.0471904 16.5116488,21.4155766 18.97,19.982 L23,17.631 L27.031,19.982 C29.4886581,21.4156491 30.9999244,24.0467526 31,26.892 L31,40 C31,40.5522847 30.5522847,41 30,41 L16,41 C15.4477153,41 15,40.5522847 15,40 Z" id="Shape" fill="#FFDC00" fill-rule="nonzero"/>
            <path d="M18,37.315 L18,28.341 C17.9730521,26.4457505 18.9066387,24.6655014 20.481,23.61 L23,22 L25.519,23.61 C27.0933613,24.6655014 28.0269479,26.4457505 28,28.341 L28,37.315 C28.015833,37.6764802 27.736414,37.9827234 27.375,38 L18.625,38 C18.263586,37.9827234 17.984167,37.6764802 18,37.315 Z" id="Shape" fill="#FC4012" fill-rule="nonzero"/>
            <path d="M1.96,55 L4.96,55 C4.42980664,55 4,54.5701934 4,54.04 L4,3.96 C4,3.42980664 4.42980664,3 4.96,3 L1.96,3 C1.70539217,3 1.46121241,3.10114257 1.28117749,3.28117749 C1.10114257,3.46121241 1,3.70539217 1,3.96 L1,54.04 C1,54.5701934 1.42980664,55 1.96,55 Z" id="Shape" fill="#FFFFFF" fill-rule="nonzero"/>
            <polygon id="Shape" fill="#FFFFFF" fill-rule="nonzero" points="2 10 2 23 2 48 0 48 0 23 0 10"/>
            <path d="M1,15 C1.55228475,15 2,14.5522847 2,14 L2,10 L0,10 L0,14 C0,14.5522847 0.44771525,15 1,15 Z" id="Shape" fill="#000000" fill-rule="nonzero"/>
            <path d="M0,48 L2,48 L2,22 C2,21.4477153 1.55228475,21 1,21 C0.44771525,21 0,21.4477153 0,22 L0,48 Z" id="Shape" fill="#000000" fill-rule="nonzero"/>
            <path d="M2,18 C1.99611961,17.7352731 1.89256504,17.481743 1.71,17.29 L1.56,17.17 C1.50427287,17.1321227 1.44373808,17.1018554 1.38,17.08 C1.32333758,17.0511123 1.26266255,17.0308873 1.2,17.02 C1.13385548,17.0088692 1.06703885,17.0021875 1,17 C0.735273141,17.0038804 0.481742984,17.107435 0.29,17.29 C0.199603156,17.3856071 0.12832305,17.4976187 0.08,17.62 C-0.0708765757,17.9929737 0.0113519394,18.4197788 0.29,18.71 C0.385607086,18.8003968 0.497618681,18.871677 0.62,18.92 C0.740222313,18.971241 0.869322743,18.99842 1,19 C1.26603534,19.0027011 1.52196165,18.8982118 1.71008674,18.7100867 C1.89821183,18.5219616 2.00270108,18.2660353 2,18 Z" id="Shape" fill="#000000" fill-rule="nonzero"/>
            <polyline id="Shape" stroke="#000000" stroke-width="2" stroke-linecap="round" stroke-linejoin="round" points="1 10 1 3 45 3 45 55 1 55 1 48"/>
            <path d="M1,3 L1,0" id="Shape" stroke="#000000" stroke-width="2" stroke-linecap="round" stroke-linejoin="round"/>
            <path d="M5,3 L5,0" id="Shape" stroke="#000000" stroke-width="2" stroke-linecap="round" stroke-linejoin="round"/>
            <path d="M9,3 L9,0" id="Shape" stroke="#000000" stroke-width="2" stroke-linecap="round" stroke-linejoin="round"/>
            <path d="M13,3 L13,0" id="Shape" stroke="#000000" stroke-width="2" stroke-linecap="round" stroke-linejoin="round"/>
            <path d="M17,3 L17,0" id="Shape" stroke="#000000" stroke-width="2" stroke-linecap="round" stroke-linejoin="round"/>
            <path d="M21,3 L21,0" id="Shape" stroke="#000000" stroke-width="2" stroke-linecap="round" stroke-linejoin="round"/>
            <path d="M25,3 L25,0" id="Shape" stroke="#000000" stroke-width="2" stroke-linecap="round" stroke-linejoin="round"/>
            <path d="M29,3 L29,0" id="Shape" stroke="#000000" stroke-width="2" stroke-linecap="round" stroke-linejoin="round"/>
            <path d="M33,3 L33,0" id="Shape" stroke="#000000" stroke-width="2" stroke-linecap="round" stroke-linejoin="round"/>
            <path d="M37,3 L37,0" id="Shape" stroke="#000000" stroke-width="2" stroke-linecap="round" stroke-linejoin="round"/>
            <path d="M41,3 L41,0" id="Shape" stroke="#000000" stroke-width="2" stroke-linecap="round" stroke-linejoin="round"/>
            <path d="M45,3 L45,0" id="Shape" stroke="#000000" stroke-width="2" stroke-linecap="round" stroke-linejoin="round"/>
            <path d="M1,58 L1,55" id="Shape" stroke="#000000" stroke-width="2" stroke-linecap="round" stroke-linejoin="round"/>
            <path d="M5,58 L5,55" id="Shape" stroke="#000000" stroke-width="2" stroke-linecap="round" stroke-linejoin="round"/>
            <path d="M9,58 L9,55" id="Shape" stroke="#000000" stroke-width="2" stroke-linecap="round" stroke-linejoin="round"/>
            <path d="M13,58 L13,55" id="Shape" stroke="#000000" stroke-width="2" stroke-linecap="round" stroke-linejoin="round"/>
            <path d="M17,58 L17,55" id="Shape" stroke="#000000" stroke-width="2" stroke-linecap="round" stroke-linejoin="round"/>
            <path d="M21,58 L21,55" id="Shape" stroke="#000000" stroke-width="2" stroke-linecap="round" stroke-linejoin="round"/>
            <path d="M25,58 L25,55" id="Shape" stroke="#000000" stroke-width="2" stroke-linecap="round" stroke-linejoin="round"/>
            <path d="M29,58 L29,55" id="Shape" stroke="#000000" stroke-width="2" stroke-linecap="round" stroke-linejoin="round"/>
            <path d="M33,58 L33,55" id="Shape" stroke="#000000" stroke-width="2" stroke-linecap="round" stroke-linejoin="round"/>
            <path d="M37,58 L37,55" id="Shape" stroke="#000000" stroke-width="2" stroke-linecap="round" stroke-linejoin="round"/>
            <path d="M41,58 L41,55" id="Shape" stroke="#000000" stroke-width="2" stroke-linecap="round" stroke-linejoin="round"/>
            <path d="M45,58 L45,55" id="Shape" stroke="#000000" stroke-width="2" stroke-linecap="round" stroke-linejoin="round"/>
            <rect id="Rectangle-path" stroke="#000000" stroke-width="2" stroke-linecap="round" stroke-linejoin="round" x="6" y="8" width="34" height="42" rx="1"/>
            <polyline id="Shape" stroke="#000000" stroke-width="2" stroke-linecap="round" stroke-linejoin="round" points="6 3 6 8 1 8"/>
            <polyline id="Shape" stroke="#000000" stroke-width="2" stroke-linecap="round" stroke-linejoin="round" points="40 3 40 8 45 8"/>
            <polyline id="Shape" stroke="#000000" stroke-width="2" stroke-linecap="round" stroke-linejoin="round" points="40 55 40 50 45 50"/>
            <polyline id="Shape" stroke="#000000" stroke-width="2" stroke-linecap="round" stroke-linejoin="round" points="6 55 6 50 1 50"/>
            <path d="M29.046,16.527 L23,13 L16.954,16.527 C13.2673205,18.6773474 11.0002172,22.6240263 11,26.892 L11,45 L35,45 L35,26.892 C34.9997828,22.6240263 32.7326795,18.6773474 29.046,16.527 Z" id="Shape" stroke="#000000" stroke-width="2" stroke-linecap="round" stroke-linejoin="round"/>
            <path d="M15,41 L15,26.893 C15.0056174,24.0489715 16.5153667,21.4201285 18.969,19.982 L23,17.631 L27.031,19.982 C29.4846333,21.4201285 30.9943826,24.0489715 31,26.893 L31,41 L15,41 Z" id="Shape" stroke="#000000" stroke-width="2" stroke-linecap="round" stroke-linejoin="round"/>
        </g>
    </g>
</svg>
