<?xml version="1.0" encoding="UTF-8"?>
<svg xmlns="http://www.w3.org/2000/svg" xmlns:xlink="http://www.w3.org/1999/xlink" width="46px" height="61px" viewBox="0 0 46 61" version="1.1">
    <!-- Generator: Sketch 50 (54983) - http://www.bohemiancoding.com/sketch -->
    <title>048 - Book</title>
    <desc>Created with Sketch.</desc>
    <defs/>
    <g id="Page-1" stroke="none" stroke-width="1" fill="none" fill-rule="evenodd">
        <g id="048---Book" fill-rule="nonzero">
            <rect id="Rectangle-path" fill="#ED8B13" x="1" y="35" width="44" height="4" rx="2"/>
            <rect id="Rectangle-path" fill="#ED8B13" x="1" y="55" width="44" height="4" rx="2"/>
            <path d="M11,31 L35,31 C36.104,31 37,31.896 37,33 L37,35 L9,35 L9,33 C9,31.896 9.896,31 11,31 Z" id="Shape" fill="#D93625"/>
            <rect id="Rectangle-path" fill="#C96946" x="6" y="39" width="34" height="16"/>
            <rect id="Rectangle-path" fill="#F0C000" x="14" y="43" width="18" height="8" rx="2"/>
            <path d="M6,11 L3.89,11 C2.83,11 1.95,11.83 1.89,12.88 L1.12,25.88 C1.06,27.03 1.97,28 3.12,28 L42.75,28 C43.95,28 44.88,26.96 44.74,25.77 L43.21,12.77 C43.09,11.76 42.24,11 41.22,11 L6,11 Z" id="Shape" fill="#C96946"/>
            <path d="M42.75,28 L40,28 C40,25.44 41.93,23.32 44.42,23.04 L44.74,25.77 C44.88,26.96 43.95,28 42.75,28 Z" id="Shape" fill="#ED8B13"/>
            <path d="M6,28 L3.12,28 C1.97,28 1.06,27.03 1.12,25.88 L1.29,23.02 C3.92,23.16 6,25.34 6,28 Z" id="Shape" fill="#ED8B13"/>
            <path d="M23,11 L23,28 C23,28 19.2,18.5 6.98,18.02 C6.44,18 6,17.57 6,17.02 L6,2.02 C6,1.46 6.47,1 7.03,1.02 C19.21,1.53 23,11 23,11 Z" id="Shape" fill="#ECF0F1"/>
            <path d="M40,2.02 L40,17.02 C40,17.57 39.56,18 39.02,18.02 C26.8,18.5 23,28 23,28 L23,11 C23,11 26.79,1.53 38.97,1.02 C39.53,1 40,1.46 40,2.02 Z" id="Shape" fill="#ECF0F1"/>
            <path d="M43.731,39.887 C45.153,39.547 46.136,38.054 45.914,36.638 C45.753,35.203 44.415,34.065 43,34.105 C41.483,34.133 39.719,34.168 37.816,34.205 C37.778,33.763 37.746,33.319 37.7,32.807 C37.557,31.37 36.126,30.305 34.784,30.479 C27.326,30.873 18.697,30.28 11.215,30.019 C9.37,29.813 7.747,31.565 8.015,33.392 L8.034,33.928 C8.048,34.153 8.064,34.378 8.078,34.603 C7.127,34.6 6.215,34.594 5.396,34.582 C4.457,34.617 3.372,34.475 2.402,34.639 C1.236,34.897 0.397,36.114 0.564,37.302 C0.679,38.503 1.789,39.484 3,39.479 C3,39.479 4.721,39.508 5.053,39.514 C4.841,41.794 5.364,44.817 5.52,47 C5.678,49.54 5.646,52.07 5.172,54.583 C4.286,54.593 3.298,54.488 2.402,54.64 C1.236,54.898 0.397,56.115 0.564,57.303 C0.679,58.504 1.789,59.485 3,59.48 L26.141,59.869 C28.189,59.892 38.804,60.031 40.604,60.006 L42.05,59.995 C42.549,59.963 42.925,60.061 43.731,59.886 C45.153,59.546 46.136,58.053 45.914,56.637 C45.753,55.202 44.415,54.064 43,54.104 C42.295,54.117 41.528,54.132 40.732,54.147 C40.554,53.098 40.47,52.048 40.423,50.999 C40.122,47.47 41.111,43.58 40.957,40.003 L42.05,39.995 C42.549,39.963 42.925,40.061 43.731,39.886 L43.731,39.887 Z M10.588,32.094 C10.902,31.92 11.918,31.98 12.287,31.943 L14.43,31.869 C20.319,31.572 27.881,31.22 33.713,31.479 L34.784,31.52 C36.48,31.532 36.34,32.965 36.186,34.237 C27.998,34.399 17.533,34.598 9.923,34.606 C9.952,34.201 9.978,33.785 9.985,33.393 C9.967,32.835 10.077,32.343 10.588,32.094 Z M43.251,57.987 C41.913,58.044 39.131,57.967 37.711,57.996 C30.287,58.052 10.681,58.387 3,58.521 C1.2,58.54 0.89,55.932 2.616,55.487 C3.23,55.369 4.706,55.451 5.396,55.418 C14.828,55.275 33.334,55.728 43,55.896 C44.25,55.929 44.435,57.718 43.251,57.987 Z M6.818,54.597 C6.582,53.398 6.477,52.199 6.423,51 C6.109,47.32 7.198,43.246 6.929,39.546 C12.345,39.637 26.141,39.869 26.141,39.869 C27.844,39.888 35.456,39.987 39.012,40.006 C38.909,42.216 39.376,44.973 39.52,47 C39.669,49.404 39.641,51.798 39.238,54.177 C29.675,54.365 15.314,54.664 6.818,54.597 Z M37.711,37.996 C30.287,38.052 10.681,38.387 3,38.521 C1.2,38.54 0.89,35.932 2.616,35.487 C3.23,35.369 4.706,35.451 5.396,35.418 C14.828,35.275 33.334,35.728 43,35.896 C44.25,35.929 44.435,37.718 43.251,37.987 C41.913,38.044 39.131,37.967 37.711,37.996 Z" id="Shape" fill="#232323"/>
            <path d="M32.999,45.312 C33.126,43.637 31.758,42.052 30.055,42.087 C29.068,42.092 17.322,42.477 16,42.521 C14.724,42.515 13.59,43.616 13.569,44.873 L13.602,47.931 L13.611,48.69 C13.476,49.866 14.297,51.124 15.502,51.358 C16.98,51.482 28.255,51.805 30,51.897 C31.489,51.961 32.9,50.696 32.973,49.158 C33.01,48.044 33.015,47.106 33.004,46.072 L32.998,45.313 L32.999,45.312 Z M30,50.105 L17.859,50.543 C17.43,50.54 16.048,50.622 15.67,50.557 C14.402,50.315 14.307,49.053 14.398,47.93 L14.442,44.918 C14.477,44.116 15.218,43.44 16.001,43.48 L28.142,43.869 L29.66,43.906 C30.338,43.836 31.023,44.23 31.009,44.965 C31.004,45.188 30.997,45.839 30.997,46.07 C30.982,47.059 31.002,48.145 31.018,49.054 C31.036,49.575 30.572,50.087 30.002,50.104 L30,50.105 Z" id="Shape" fill="#232323"/>
            <path d="M1.11,12.792 C0.955,16.745 0.724,21.588 0.514,25.549 C0.241,27.237 1.717,28.787 3.391,28.614 C4.165,28.616 6.433,28.6 7.218,28.603 C16.507,28.574 33.563,28.762 43.019,28.884 C44.259,28.798 45.377,27.829 45.622,26.589 C45.793,25.75 45.514,24.601 45.466,23.757 C45.114,20.782 44.729,16.541 44.304,13.617 L44.223,12.984 C44.182,11.436 42.871,10.056 41.302,10.077 L40.982,10.084 C40.998,7.477 41.007,4.641 41.001,2.55 C41.003,2.467 40.996,2.178 40.998,2.105 C41.071,0.884 39.869,-0.164 38.678,0.067 C35.195,0.332 31.67,1.249 28.734,3.253 C26.352,4.815 24.377,6.888 22.98,9.394 C19.647,3.78 13.366,0.654 6.959,0.542 C6.048,0.531 5.424,1.475 5.535,2.289 L5.574,9.518 L5.577,10.115 C4.825,10.129 4.127,10.094 3.27,10.229 C2.08,10.498 1.165,11.589 1.111,12.791 L1.11,12.792 Z M2.867,27.359 C2.283,27.256 1.809,26.739 1.752,26.149 C1.769,25.533 1.819,24.673 1.882,23.737 C2.237,23.697 2.598,23.74 2.935,23.857 C4.06,24.21 4.727,25.38 4.835,26.478 C4.895,26.794 4.902,27.093 4.943,27.39 L4.667,27.39 C4.353,27.384 3.125,27.403 2.868,27.359 L2.867,27.359 Z M42.855,27.095 C42.162,27.103 41.416,27.112 40.644,27.121 C40.632,26.869 40.658,26.616 40.722,26.373 C40.981,25.268 42.051,24.542 43.094,24.343 C43.265,24.294 43.432,24.263 43.597,24.232 C43.642,24.573 43.686,24.916 43.73,25.246 L43.812,25.879 C43.904,26.462 43.451,27.039 42.855,27.096 L42.855,27.095 Z M41.25,11.927 C41.768,11.955 42.197,12.389 42.241,12.897 C42.545,15.774 42.946,19.138 43.343,22.262 C41.393,22.806 40.306,25.217 39.48,27.135 C34.98,27.19 29.467,27.262 24.019,27.318 C27.003,22.048 33.06,18.971 39.056,18.914 C40.135,18.917 41.026,17.872 40.916,16.788 L40.923,16.195 L40.951,13.822 C40.957,13.242 40.962,12.593 40.968,11.921 L41.251,11.928 L41.25,11.927 Z M38.779,2.018 C38.851,2.013 39.017,1.997 39.012,2.001 L39.005,2.003 C38.997,2.001 39.011,2.023 39.003,2.023 L39.003,4.329 C39.001,4.651 39.001,4.999 39.001,5.346 C38.53,4.85 37.995,4.358 37.547,4.014 C37.095,3.666 36.732,3.468 36.615,3.567 C36.488,3.642 36.446,3.805 36.521,3.931 C36.953,4.594 37.446,5.202 37.996,5.753 C38.271,6.028 38.561,6.289 38.864,6.535 C38.908,6.571 38.958,6.601 39.003,6.636 C39.005,7.423 39.008,8.239 39.013,9.075 C38.786,8.821 38.553,8.568 38.331,8.34 C38.183,8.187 38.059,8.057 37.977,7.973 C37.586,7.57 37.165,7.195 36.767,6.848 C36.658,6.753 36.55,6.661 36.443,6.573 C36.073,6.269 35.734,6.019 35.459,5.888 C35.391,5.856 35.318,5.863 35.265,5.902 C35.187,5.96 35.15,6.051 35.168,6.133 C35.185,6.211 35.218,6.294 35.273,6.37 C35.857,7.182 36.515,7.929 37.215,8.631 L37.281,8.697 C37.643,9.057 38.02,9.402 38.409,9.734 C38.605,9.901 38.815,10.053 39.018,10.213 C39.024,11.088 39.031,11.955 39.039,12.802 L39.034,12.797 C38.588,12.285 38.05,11.733 37.644,11.319 C37.438,11.111 37.286,10.947 37.218,10.873 C36.755,10.374 36.236,9.93 35.741,9.487 C35.606,9.366 35.472,9.247 35.337,9.131 C34.934,8.785 34.542,8.471 34.17,8.229 C34.09,8.177 33.988,8.18 33.914,8.237 C33.819,8.31 33.79,8.438 33.844,8.535 C33.895,8.626 33.955,8.719 34.025,8.808 C34.789,9.779 35.614,10.692 36.485,11.558 L36.567,11.64 C37.017,12.084 37.479,12.515 37.956,12.932 C38.31,13.243 38.681,13.537 39.05,13.833 C39.058,14.67 39.067,15.475 39.076,16.197 L39.079,16.535 C38.94,16.369 38.79,16.196 38.627,16.017 C37.732,15.035 36.593,13.957 36.462,13.772 C35.884,13.22 35.309,12.665 34.718,12.125 C34.128,11.585 33.522,11.06 32.884,10.569 C32.792,10.498 32.661,10.496 32.565,10.571 C32.452,10.66 32.432,10.823 32.521,10.936 C33.541,12.176 34.62,13.36 35.756,14.485 C36.324,15.048 36.907,15.596 37.503,16.129 C37.894,16.478 38.3,16.812 38.703,17.148 C37.783,17.201 36.868,17.32 35.963,17.498 C35.91,17.434 35.859,17.371 35.802,17.306 C35.363,16.801 34.832,16.255 34.435,15.849 C34.233,15.644 34.084,15.483 34.018,15.412 C33.564,14.921 33.052,14.485 32.565,14.049 C32.438,13.936 32.312,13.823 32.184,13.714 C31.783,13.371 31.392,13.057 31.017,12.813 C30.939,12.762 30.837,12.765 30.763,12.821 C30.669,12.892 30.641,13.017 30.693,13.112 C30.753,13.22 30.824,13.331 30.908,13.437 C31.642,14.371 32.435,15.249 33.271,16.083 C33.318,16.13 33.366,16.177 33.414,16.224 C33.835,16.638 34.268,17.041 34.714,17.431 L34.784,17.492 C34.865,17.563 34.953,17.627 35.035,17.697 C34.276,17.883 33.529,18.113 32.798,18.383 C32.518,18.049 32.203,17.703 31.913,17.403 C31.77,17.256 31.653,17.131 31.576,17.052 C31.202,16.665 30.797,16.306 30.413,15.973 C30.313,15.886 30.213,15.801 30.114,15.72 C29.756,15.427 29.425,15.185 29.152,15.056 C29.087,15.025 29.015,15.032 28.962,15.07 C28.887,15.124 28.851,15.21 28.866,15.287 C28.884,15.376 28.92,15.472 28.982,15.56 C29.523,16.323 30.135,17.022 30.787,17.679 C30.824,17.716 30.861,17.753 30.898,17.79 C31.228,18.116 31.57,18.43 31.924,18.731 L31.927,18.734 C31.268,19.014 30.624,19.326 30.001,19.675 C29.829,19.448 29.621,19.203 29.39,18.957 C28.959,18.498 28.462,18.043 28.043,17.726 C27.624,17.409 27.282,17.229 27.16,17.32 C27.031,17.392 26.984,17.555 27.056,17.684 C27.439,18.298 27.882,18.857 28.383,19.357 C28.633,19.607 28.898,19.843 29.177,20.065 C29.198,20.082 29.222,20.095 29.244,20.112 C27.126,21.423 25.281,23.145 23.879,25.22 C23.696,20.643 23.626,16.065 23.565,11.485 C23.617,11.427 23.662,11.359 23.693,11.28 C26.396,5.633 32.579,2.176 38.778,2.021 L38.779,2.018 Z M6.465,2.288 C6.431,1.778 6.577,1.555 6.977,1.5 L8.708,1.675 C12.169,2.107 15.559,3.524 18.201,5.81 C19.919,7.337 21.427,9.25 22.304,11.276 C22.335,11.355 22.38,11.422 22.432,11.481 C22.37,16.121 22.299,20.76 22.11,25.398 C19.754,22.065 16.268,19.669 12.421,18.514 C11.248,18.137 10.029,17.93 8.815,17.773 L6.987,17.621 C6.526,17.557 6.34,17.292 6.388,16.747 C6.401,13.144 6.452,5.892 6.464,2.288 L6.465,2.288 Z M5.585,11.892 L5.61,16.747 C5.593,16.986 5.603,17.526 5.879,17.843 C6.127,18.184 6.534,18.392 6.947,18.413 C11.045,18.624 15.203,19.937 18.304,22.688 C19.79,24.009 21.115,25.603 22.028,27.331 L22.028,27.336 C16.467,27.389 11.13,27.421 7.217,27.395 L6.928,27.395 C6.854,24.985 4.081,23.457 1.972,22.431 C2.093,20.766 2.228,19.047 2.291,17.982 C2.407,16.291 2.532,14.577 2.676,12.906 C2.723,12.393 3.146,11.951 3.635,11.869 C3.966,11.821 4.937,11.876 5.584,11.892 L5.585,11.892 Z" id="Shape" fill="#232323"/>
        </g>
    </g>
</svg>
