<?xml version="1.0" encoding="UTF-8"?>
<svg xmlns="http://www.w3.org/2000/svg" xmlns:xlink="http://www.w3.org/1999/xlink" width="60px" height="60px" viewBox="0 0 60 60" version="1.1">
    <!-- Generator: Sketch 51.3 (57544) - http://www.bohemiancoding.com/sketch -->
    <title>009 - Prayer Beads</title>
    <desc>Created with Sketch.</desc>
    <defs/>
    <g id="Page-1" stroke="none" stroke-width="1" fill="none" fill-rule="evenodd">
        <g id="009---Prayer-Beads" transform="translate(0.000000, 1.000000)">
            <path d="M9.57,34.14 C9.8,33.93 9.09,34.84 9.38,34.87 C9.61371244,34.8901355 9.83137662,34.9971834 9.99,35.17 L10.92,36.13 C9.37,29.5 16.24,22.81 16.24,22.81 L29.38,10.09 L29.66,9.82 C29.9354037,9.5585634 30.2524884,9.34489792 30.5982,9.1878 C29.2828924,8.55106541 27.7099254,8.80357411 26.66,9.82 L26.38,10.09 L13.24,22.81 C13.24,22.81 7.5685,28.325 8.8679,34.8208 L9.57,34.14 Z" id="Shape" fill="#FFFFFF" fill-rule="nonzero"/>
            <path d="M56.0121,20.3338 C55.9481,20.3032 55.8862,20.2687 55.8208,20.2422 L55.07,20.97 C55.3466672,20.7072652 55.6650272,20.4922767 56.0121,20.3338 Z" id="Shape" fill="#FFFFFF" fill-rule="nonzero"/>
            <path d="M15.97,55.84 L17.75,57.68 C18.1356673,58.0706154 18.7634088,58.0795195 19.16,57.7 L19.992,56.8964 L18.97,55.84 L4.28,40.66 C4.09316152,40.4716686 3.98999385,40.2160586 3.99375641,39.950798 C3.99751898,39.6855374 4.10789503,39.4329564 4.3,39.25 L8.74,34.9446 L7.99,34.17 C7.83137662,33.9971834 7.61371244,33.8901355 7.38,33.87 C7.0836689,33.8387189 6.78829624,33.9371765 6.57,34.14 L1.3,39.25 C1.10789503,39.4329564 0.997518976,39.6855374 0.993756414,39.950798 C0.989993852,40.2160586 1.09316152,40.4716686 1.28,40.66 L15.97,55.84 Z" id="Shape" fill="#FFFFFF" fill-rule="nonzero"/>
            <path d="M57.02,21.05 C57.6694423,21.7151564 58.026306,22.6121606 58.0112837,23.5416672 C57.9962614,24.4711739 57.6105975,25.3561776 56.94,26 L40.17,42.24 C38.6156883,43.652386 36.876396,44.8466776 35,45.79 L32.56,46.87 L29.26,48.33 C26.06,49.54 23.53,50.22 23.53,50.22 L16.12,45.63 L11.16,40.51 L8.92,35.13 C7.37,28.5 13.24,22.81 13.24,22.81 L26.38,10.09 L26.66,9.82 C28.0519929,8.48278726 30.2619458,8.51850367 31.61,9.9 C31.6490467,9.93487096 31.6827419,9.97530524 31.71,10.02 C31.9458911,10.2697084 32.1385286,10.5569749 32.28,10.87 L32.28,10.88 L33.86,9.35 L42.22,1.26 L42.23,1.26 L42.49,1 C43.1555412,0.351307743 44.0523885,-0.00504342939 44.9816469,0.00997488847 C45.9109053,0.0249932063 46.7957687,0.410139703 47.44,1.08 C48.0951528,1.74810224 48.4491335,2.65472623 48.42,3.59 C48.4102916,4.16897015 48.2555746,4.73626609 47.97,5.24 C47.8081802,5.53292428 47.6024632,5.79934464 47.36,6.03 L48.08,5.33 L52.12,1.42 L52.39,1.16 C53.7789961,-0.18757479 55.9974252,-0.153996146 57.345,1.235 C58.6925748,2.62399615 58.6589961,4.84242521 57.27,6.19 L53.07,10.25 C53.7365505,9.60504784 54.6326696,9.25235841 55.56,9.27 C56.4896495,9.27591236 57.37721,9.65835715 58.02,10.33 C58.6694423,10.9951564 59.026306,11.8921606 59.0112837,12.8216672 C58.9962614,13.7511739 58.6105975,14.6361776 57.94,15.28 L52.07,20.97 C52.73549,20.3212079 53.6323581,19.9647884 54.5616496,19.9798073 C55.490941,19.9948261 56.3758231,20.3800415 57.02,21.05 Z" id="Shape" fill="#FF8401" fill-rule="nonzero"/>
            <path d="M54.27,22.3 C54.9194423,22.9651564 55.276306,23.8621606 55.2612837,24.7916672 C55.2462614,25.7211739 54.8605975,26.6061776 54.19,27.25 L37.42,43.49 C35.9547368,44.8242953 34.3208031,45.9606525 32.56,46.87 L29.26,48.33 C26.06,49.54 23.53,50.22 23.53,50.22 L16.12,45.63 L11.16,40.51 L8.92,35.13 C7.37,28.5 13.24,22.81 13.24,22.81 L26.38,10.09 C27.5576151,10.2541227 28.6513522,10.7922273 29.5,11.625 C31.4344,13.7577 31.7809,14.9091 31.375,14.625 C31.375,14.625 32.9375,13.8025 32.9375,13.8125 L31.11,10.6 L31.71,10.02 L39.74,2.25 C40.4017304,1.6027336 41.2944434,1.24636834 42.22,1.26 L42.23,1.26 C43.4654477,1.28186016 44.5981507,1.95249981 45.2114212,3.02521042 C45.8246917,4.09792103 45.827951,5.41426566 45.22,6.49 C45.0581802,6.78292428 44.8524632,7.04934464 44.61,7.28 L45.33,6.58 L48.42,3.59 L49.64,2.41 C50.3033502,1.76522602 51.1949853,1.40929105 52.12,1.42 L52.14,1.42 C53.5558057,1.44492288 54.817573,2.31921791 55.3381872,3.63606553 C55.8588014,4.95291316 55.5360054,6.45366344 54.52,7.44 L50.32,11.5 C50.9865505,10.8550478 51.8826696,10.5023584 52.81,10.52 C52.8901301,10.5183367 52.970286,10.5216766 53.05,10.53 C53.895272,10.5900517 54.6873527,10.9646845 55.27,11.58 C55.9194423,12.2451564 56.276306,13.1421606 56.2612837,14.0716672 C56.2462614,15.0011739 55.8605975,15.8861776 55.19,16.53 L49.32,22.22 C49.9884207,21.5705169 50.8881385,21.2142286 51.82,21.23 C51.9,21.23 51.98,21.24 52.05,21.24 C52.8946024,21.3104232 53.684246,21.6874603 54.27,22.3 Z" id="Shape" fill="#FFDC00" fill-rule="nonzero"/>
            <path d="M24.44,52.6 L19.16,57.7 C18.7634088,58.0795195 18.1356673,58.0706154 17.75,57.68 L15.97,55.84 L1.28,40.66 C1.09316152,40.4716686 0.989993852,40.2160586 0.993756414,39.950798 C0.997518976,39.6855374 1.10789503,39.4329564 1.3,39.25 L6.57,34.14 C6.78829624,33.9371765 7.0836689,33.8387189 7.38,33.87 C7.61371244,33.8901355 7.83137662,33.9971834 7.99,34.17 L8.92,35.13 L23.53,50.22 L24.46,51.18 C24.8395829,51.5804107 24.8307093,52.2104385 24.44,52.6 Z" id="Shape" fill="#2C98F6" fill-rule="nonzero"/>
            <path d="M22.06,50.47 L16.78,55.58 C16.5637845,55.7856674 16.2655229,55.8814057 15.97,55.84 L1.28,40.66 C1.09316152,40.4716686 0.989993852,40.2160586 0.993756414,39.950798 C0.997518976,39.6855374 1.10789503,39.4329564 1.3,39.25 L6.57,34.14 C6.78829624,33.9371765 7.0836689,33.8387189 7.38,33.87 L21.16,48.09 L22.08,49.05 C22.2668932,49.2403167 22.3699331,49.4974593 22.3661766,49.7641715 C22.3624201,50.0308837 22.252179,50.2850223 22.06,50.47 Z" id="Shape" fill="#48BDFF" fill-rule="nonzero"/>
            <path d="M35,48.6667 L35,16.7917 C35,15.6871 34.1046,15.7917 33,15.7917 C31.8954,15.7917 31,15.6871 31,16.7917 L31,48.6667 L35,48.6667 Z" id="Shape" fill="#BFBFBF" fill-rule="nonzero"/>
            <path d="M37.23,58 L28.77,58 C28.1287281,57.9981311 27.5273121,57.6886154 27.1530819,57.1678613 C26.7788518,56.6471071 26.6772784,55.9783889 26.88,55.37 L29.05,48.84 C29.62081,47.143786 31.210317,46.0009505 33,46 C33.8731747,45.9996507 34.7239624,46.2762442 35.43,46.79 C36.1371843,47.298981 36.6684195,48.0154494 36.95,48.84 L39.12,55.37 C39.3227216,55.9783889 39.2211482,56.6471071 38.8469181,57.1678613 C38.4726879,57.6886154 37.8712719,57.9981311 37.23,58 Z" id="Shape" fill="#BD300E" fill-rule="nonzero"/>
            <path d="M36,19 C36.0010516,20.2149109 35.2698772,21.3107299 34.1476468,21.776142 C33.0254164,22.2415542 31.7333144,21.9848298 30.8742423,21.1257577 C30.0151702,20.2666856 29.7584458,18.9745836 30.223858,17.8523532 C30.6892701,16.7301228 31.7850891,15.9989484 33,16 C33.795975,15.9989366 34.5596548,16.3146656 35.1224946,16.8775054 C35.6853344,17.4403452 36.0010634,18.204025 36,19 Z" id="Shape" fill="#CCCCCC" fill-rule="nonzero"/>
            <path d="M36,25 C36.0010516,26.2149109 35.2698772,27.3107299 34.1476468,27.776142 C33.0254164,28.2415542 31.7333144,27.9848298 30.8742423,27.1257577 C30.0151702,26.2666856 29.7584458,24.9745836 30.223858,23.8523532 C30.6892701,22.7301228 31.7850891,21.9989484 33,22 C33.795975,21.9989366 34.5596548,22.3146656 35.1224946,22.8775054 C35.6853344,23.4403452 36.0010634,24.204025 36,25 Z" id="Shape" fill="#CCCCCC" fill-rule="nonzero"/>
            <path d="M34,19 C34.001474,20.0726942 33.4293742,21.0643337 32.5,21.6 C31.5716869,21.0632684 30.9999667,20.0723087 30.9999667,19 C30.9999667,17.9276913 31.5716869,16.9367316 32.5,16.4 C33.4293742,16.9356663 34.001474,17.9273058 34,19 Z" id="Shape" fill="#FFFFFF" fill-rule="nonzero"/>
            <path d="M34,25 C34.001474,26.0726942 33.4293742,27.0643337 32.5,27.6 C31.5716869,27.0632684 30.9999667,26.0723087 30.9999667,25 C30.9999667,23.9276913 31.5716869,22.9367316 32.5,22.4 C33.4293742,22.9356663 34.001474,23.9273058 34,25 Z" id="Shape" fill="#FFFFFF" fill-rule="nonzero"/>
            <path d="M36,31 C36.0010516,32.2149109 35.2698772,33.3107299 34.1476468,33.776142 C33.0254164,34.2415542 31.7333144,33.9848298 30.8742423,33.1257577 C30.0151702,32.2666856 29.7584458,30.9745836 30.223858,29.8523532 C30.6892701,28.7301228 31.7850891,27.9989484 33,28 C33.795975,27.9989366 34.5596548,28.3146656 35.1224946,28.8775054 C35.6853344,29.4403452 36.0010634,30.204025 36,31 Z" id="Shape" fill="#CCCCCC" fill-rule="nonzero"/>
            <path d="M36,37 C36.0010516,38.2149109 35.2698772,39.3107299 34.1476468,39.776142 C33.0254164,40.2415542 31.7333144,39.9848298 30.8742423,39.1257577 C30.0151702,38.2666856 29.7584458,36.9745836 30.223858,35.8523532 C30.6892701,34.7301228 31.7850891,33.9989484 33,34 C33.795975,33.9989366 34.5596548,34.3146656 35.1224946,34.8775054 C35.6853344,35.4403452 36.0010634,36.204025 36,37 Z" id="Shape" fill="#CCCCCC" fill-rule="nonzero"/>
            <path d="M34.23,58 L28.77,58 C28.1287281,57.9981311 27.5273121,57.6886154 27.1530819,57.1678613 C26.7788518,56.6471071 26.6772784,55.9783889 26.88,55.37 L29.05,48.84 C29.4457449,47.6650363 30.3435382,46.7269338 31.5,46.28 C32.6511855,46.7348152 33.5461498,47.6699615 33.95,48.84 L36.12,55.37 C36.3227216,55.9783889 36.2211482,56.6471071 35.8469181,57.1678613 C35.4726879,57.6886154 34.8712719,57.9981311 34.23,58 Z" id="Shape" fill="#FC4012" fill-rule="nonzero"/>
            <path d="M34,31 C34.001474,32.0726942 33.4293742,33.0643337 32.5,33.6 C31.5716869,33.0632684 30.9999667,32.0723087 30.9999667,31 C30.9999667,29.9276913 31.5716869,28.9367316 32.5,28.4 C33.4293742,28.9356663 34.001474,29.9273058 34,31 Z" id="Shape" fill="#FFFFFF" fill-rule="nonzero"/>
            <path d="M34,37 C34.001474,38.0726942 33.4293742,39.0643337 32.5,39.6 C31.5716869,39.0632684 30.9999667,38.0723087 30.9999667,37 C30.9999667,35.9276913 31.5716869,34.9367316 32.5,34.4 C33.4293742,34.9356663 34.001474,35.9273058 34,37 Z" id="Shape" fill="#FFFFFF" fill-rule="nonzero"/>
            <rect id="Rectangle-path" stroke="#000000" stroke-width="2" stroke-linecap="round" stroke-linejoin="round" transform="translate(12.868604, 45.921979) rotate(-134.072500) translate(-12.868604, -45.921979) " x="0.0280039876" y="41.2526791" width="25.6812" height="9.3386" rx="1"/>
            <path d="M32.2745,10.8869 L42.49,0.9973 C43.3888802,0.127054591 44.6837502,-0.197538434 45.8868449,0.145791979 C47.0899397,0.489122392 48.0184805,1.44821618 48.322695,2.661792 C48.6269095,3.87536782 48.2605802,5.15905462 47.3617,6.0293" id="Shape" stroke="#000000" stroke-width="2" stroke-linecap="round" stroke-linejoin="round"/>
            <path d="M53.07,10.25 L57.27,6.19 C58.168523,5.31827197 58.5337311,4.03340573 58.228054,2.81939797 C57.9223768,1.60539021 56.9922541,0.646677605 55.7880539,0.304397923 C54.5838538,-0.0378817598 53.2885229,0.288271911 52.39,1.16 L47.36,6.03 L35.57,17.45" id="Shape" stroke="#000000" stroke-width="2" stroke-linecap="round" stroke-linejoin="round"/>
            <path d="M38.8142,24.0527 L53.0717,10.25 C53.9705802,9.37975458 55.2654502,9.05516155 56.4685449,9.39849196 C57.6716397,9.74182237 58.6001805,10.7009162 58.904395,11.914492 C59.2086095,13.1280678 58.8422803,14.4117546 57.9434,15.282 L52.0727,20.9657" id="Shape" stroke="#000000" stroke-width="2" stroke-linecap="round" stroke-linejoin="round"/>
            <path d="M23.53,50.22 C23.53,50.22 26.06,49.54 29.26,48.33" id="Shape" stroke="#000000" stroke-width="2" stroke-linecap="round" stroke-linejoin="round"/>
            <path d="M43.69,29.08 L52.07,20.97 C53.4589962,19.6251867 55.6751866,19.6610039 57.02,21.05 C58.3648133,22.4389962 58.3289961,24.6551866 56.94,26 L40.17,42.24 C38.6156466,43.6523334 36.8763619,44.8466198 35,45.79" id="Shape" stroke="#000000" stroke-width="2" stroke-linecap="round" stroke-linejoin="round"/>
            <path d="M7.9418,35.3529 C7.44835545,33.0272655 7.64710872,30.6080172 8.5135,28.3941 C9.33647979,26.2466928 10.5520568,24.2712699 12.0981,22.5688 C12.244,22.407 12.3822,22.2581 12.5574,22.0848 L12.9899,21.6661 L13.855,20.8286 L15.585,19.1535 L19.045,15.8035 L25.9657,9.1035 L27.3572,10.54 L13.58,23.912 C10.8787,26.9325 9,31.0511 9.89,34.8993 L7.9418,35.3529 Z" id="Shape" fill="#FFFFFF" fill-rule="nonzero"/>
            <path d="M9.0044,30.1733 C8.73664036,30.1078598 8.45367258,30.1604328 8.2272865,30.3176809 C8.00090042,30.4749291 7.85285142,30.7217411 7.8207,30.9955 C7.59060041,32.4429152 7.63166513,33.9204989 7.9418,35.3529 L9.89,34.8993 C9.63859643,33.7189818 9.60676532,32.5024503 9.7961,31.3106 C9.85248007,30.7871809 9.51483613,30.3021456 9.0044,30.1733 Z" id="Shape" fill="#000000" fill-rule="nonzero"/>
            <path d="M27.3572,10.54 L25.9661,9.1031 L19.0454,15.8031 L15.5854,19.1531 L13.8554,20.8282 L12.9903,21.6657 L12.5578,22.0844 C12.3826,22.2577 12.2444,22.4066 12.0985,22.5684 C11.8609,22.8337 11.6298,23.0984 11.4132,23.3754 C11.2392984,23.5837542 11.1593148,23.854755 11.1922143,24.1241448 C11.2251138,24.3935346 11.3679664,24.6373213 11.5869,24.7977 C12.0217,25.1117676 12.6249843,25.0382251 12.9716,24.6289 C13.1656,24.3803 13.3736,24.1428 13.5805,23.9116 L27.3572,10.54 Z" id="Shape" fill="#000000" fill-rule="nonzero"/>
            <path d="M9.1382,26.9218 C9.02505327,27.1755292 9.00914402,27.4620025 9.0935,27.7267 L9.18,27.9 C9.21509962,27.9574758 9.25819814,28.0096654 9.308,28.055 C9.34821689,28.1037793 9.39594846,28.1458398 9.4494,28.1796 C9.50582093,28.2153222 9.56473982,28.2469373 9.6257,28.2742 C9.87234433,28.3700031 10.1447176,28.3765825 10.3957,28.2928 C10.8839192,28.1065035 11.1442795,27.5737616 10.9913,27.0741 C10.9470345,26.9506724 10.8815131,26.8359423 10.7977,26.7351 C10.7165486,26.6319264 10.6167966,26.5448596 10.5036,26.4784 C10.2719876,26.349581 9.99822981,26.319552 9.7442,26.3951 C9.48441924,26.4903678 9.26873542,26.6778277 9.1382,26.9218 Z" id="Shape" fill="#000000" fill-rule="nonzero"/>
            <path d="M23.7714,35.3666 C23.7714,35.3666 29.6422,29.6829 23.9852,22.1615 L31.5333,14.8539 C32.2005845,14.2078737 32.5838932,13.3232207 32.5988962,12.3945693 C32.6138993,11.4659178 32.2593676,10.5693445 31.6133,9.9021 C30.267957,8.51259071 28.0509254,8.47677365 26.6614,9.8221" id="Shape" stroke="#000000" stroke-width="2" stroke-linecap="round" stroke-linejoin="round"/>
            <path d="M23.9933,22.17 C23.991044,22.1678486 23.9897675,22.1648673 23.9897675,22.16175 C23.9897675,22.1586327 23.991044,22.1556514 23.9933,22.1535" id="Shape" stroke="#000000" stroke-width="2" stroke-linecap="round" stroke-linejoin="round"/>
            <circle id="Oval" stroke="#000000" stroke-width="2" stroke-linecap="round" stroke-linejoin="round" cx="33" cy="19" r="3"/>
            <circle id="Oval" stroke="#000000" stroke-width="2" stroke-linecap="round" stroke-linejoin="round" cx="33" cy="25" r="3"/>
            <circle id="Oval" stroke="#000000" stroke-width="2" stroke-linecap="round" stroke-linejoin="round" cx="33" cy="31" r="3"/>
            <circle id="Oval" stroke="#000000" stroke-width="2" stroke-linecap="round" stroke-linejoin="round" cx="33" cy="37" r="3"/>
            <path d="M30,58 L31,54" id="Shape" stroke="#000000" stroke-width="2" stroke-linecap="round" stroke-linejoin="round"/>
            <path d="M36,58 L35,54" id="Shape" stroke="#000000" stroke-width="2" stroke-linecap="round" stroke-linejoin="round"/>
            <path d="M37.2251,58 L28.7751,58 C28.1321963,58.0000155 27.5284804,57.6909716 27.1525678,57.1694211 C26.7766552,56.6478707 26.6743817,55.9774072 26.8777,55.3675 L29.052,48.8445 C29.6182176,47.1458365 31.2078526,46.0000538 32.9984,46 L33.0016,46 C34.792221,45.9999677 36.3819592,47.1457667 36.9482,48.8445 L39.1225,55.3675 C39.3258183,55.9774072 39.2235448,56.6478707 38.8476322,57.1694211 C38.4717196,57.6909716 37.8680037,58.0000155 37.2251,58 Z" id="Shape" stroke="#000000" stroke-width="2" stroke-linecap="round" stroke-linejoin="round"/>
            <path d="M31,46.52 L31,39.23" id="Shape" stroke="#000000" stroke-width="2" stroke-linecap="round" stroke-linejoin="round"/>
            <polyline id="Shape" stroke="#000000" stroke-width="2" stroke-linecap="round" stroke-linejoin="round" points="35 39.23 35 45.79 35 46.52"/>
        </g>
    </g>
</svg>
