<?xml version="1.0" encoding="utf-8"?>
<!-- Generator: Adobe Illustrator 24.1.3, SVG Export Plug-In . SVG Version: 6.00 Build 0)  -->
<svg version="1.1" id="Layer_1" xmlns="http://www.w3.org/2000/svg" xmlns:xlink="http://www.w3.org/1999/xlink" x="0px" y="0px"
	 viewBox="0 0 230.8 184.2" style="enable-background:new 0 0 230.8 184.2;" xml:space="preserve">
<style type="text/css">
	.st0{fill:#01512F;}
</style>
<g>
	<path class="st0" d="M69.7,87.3l0.2,11.6c-2.6,0.9-4.7,1.3-6.6,1.3c-3,0-5.7-0.8-5.7-2.6C57.6,95.1,61.7,91.6,69.7,87.3z"/>
	<g>
		<g>
			<path class="st0" d="M31.5,144.9c0,4.8,0.1,8.5,0.1,10.9c0,1.9-0.5,3.1-1.5,3.6c-0.6,0.3-1.5,0.4-2.7,0.3c-1-0.1-1.7-0.4-2.1-0.8
				c-0.4-0.4-0.7-1.1-0.7-1.9c0-0.6,0-1.3,0-2.2v0l0-0.6c0-0.1,0-0.2,0-0.4c0-0.2,0-0.3,0-0.4c0-0.8,0.1-1.3,0.1-1.7v-0.1
				c0-0.4,0-0.8-0.1-0.9c-0.4-0.7-1.4-1.1-3.2-1.2c-0.4,0-1,0-1.7,0c0,0-0.1,0-0.1,0h-0.4H19c-0.1,0-0.2,0-0.2,0
				c-0.8,0-1.5,0.1-1.9,0.5c-0.5,0.3-0.8,0.9-0.9,1.6c-0.1,0.4-0.1,1.1,0,2c0.1,0.6,0.1,1.1,0.1,1.4c0,1.5-0.1,2.7-0.5,3.7
				c-0.1,0.3-0.2,0.5-0.3,0.7c-0.2,0.2-0.4,0.3-0.8,0.4c-0.1,0-0.2,0.1-0.3,0.1c-0.4,0-0.9,0.1-1.3,0.1c-0.3,0-0.5,0-0.8,0
				c-0.8,0-1.4-0.2-1.8-0.4c-1-0.6-1.5-1.8-1.4-3.8c0-1.4,0.1-2.9,0.1-4.5c0-0.7,0-1.5,0-2.4c0-2,0-5.1,0-9.1c0-1.2,0-2.3,0-3.2
				c0-0.6,0.1-1.1,0.2-1.4c0.3-0.8,1.1-1.2,2.2-1.3c2.1-0.2,3.4,0.2,4,1c0.2,0.3,0.3,0.6,0.4,1.2c0.1,0.7,0.1,1.4,0.1,2.4v0.1v0.5
				c0,0.3,0,0.5,0,0.6c0,0.9,0,1.5,0,2c0,0.1,0,0.3,0,0.4c0.1,1,0.5,1.6,1.1,1.9c0.4,0.2,1,0.2,1.8,0.2c0.3,0,0.5,0,0.6,0
				c0.3,0,0.9,0,1.7,0c0.5,0,0.8,0,1,0c0.7,0,1.2-0.1,1.5-0.4c0.4-0.3,0.6-0.7,0.7-1.3c0.1-0.9,0.2-2.4,0.1-4.4
				c-0.1-1-0.1-1.6-0.1-2.1c0-0.5,0.1-0.9,0.2-1.1c0.2-0.4,0.7-0.7,1.4-0.8c1.4-0.4,2.5-0.4,3.4-0.1c0.9,0.3,1.5,0.9,1.8,1.8l0,0.1
				l0.1,0.4h0c0.1,0.5,0.1,1.2,0.1,2.1v0.3v0.1c0,0.4,0,0.7,0,0.9C31.5,140.8,31.5,142.6,31.5,144.9z"/>
			<path class="st0" d="M70.8,158.2l0.1,0l-0.3,0.5l0,0.1c-0.2,0.4-0.6,0.7-1,0.9c-0.4,0.2-1,0.3-1.6,0.3c-0.4,0-0.9,0-1.4-0.1
				c-1.3-0.3-2.2-1-2.7-2.3c-0.1-0.2-0.2-0.5-0.3-0.9c-0.3-0.9-0.5-1.5-0.9-1.8c-0.1-0.1-0.2-0.2-0.3-0.3c-0.7-0.4-1.8-0.6-3.3-0.6
				c-0.1,0-0.3,0-0.6,0c-0.9,0-1.5,0-1.9,0.1c-0.3,0.1-0.5,0.2-0.7,0.3c-0.5,0.4-1,1.1-1.4,2.1l0,0.1h0c-0.2,0.5-0.3,0.8-0.5,1.1
				s-0.3,0.5-0.6,0.9c-0.3,0.3-0.6,0.6-1,0.7c-0.6,0.3-1.2,0.4-1.9,0.5c-0.7,0-1.4-0.1-2-0.3c-0.7-0.3-1.1-0.8-1.3-1.5
				c-0.1-0.4-0.1-1,0.1-1.8c0.7-3,2.1-7.5,4.2-13.4l0.5-1.2c0.5-1.5,0.9-2.6,1.2-3.5c0,0,0-0.1,0.1-0.2l0.1-0.3l0-0.1
				c0.4-1,0.8-1.8,1.4-2.3c0.9-0.8,2.2-1.3,4-1.4c2.2-0.1,3.8,0.5,4.8,1.5c0.6,0.6,1.2,1.7,1.7,3.2c0.5,1.4,0.9,2.9,1.4,4.5l0.1,0.3
				c0.2,0.6,0.4,1.1,0.5,1.7l0.2,0.5v0l0,0.1c0.8,2.7,1.8,6,3,10.1l0,0.2l0,0.1v0l0.1,0.2h0C70.9,157,70.9,157.7,70.8,158.2z
				 M59.5,141.5c-0.1-0.1-0.1-0.2-0.1-0.2c-0.1,0-0.1,0-0.2,0c-0.1,0-0.1,0-0.2,0c-0.1,0-0.1,0.1-0.2,0.1c-0.1,0.1-0.2,0.3-0.3,0.7
				c-0.3,1-0.6,2-1,2.9c-0.1,0.1-0.2,0.4-0.4,0.7c-0.4,0.8-0.6,1.3-0.6,1.7c0,0.4,0.2,0.7,0.6,0.9c0.4,0.2,0.9,0.3,1.4,0.2
				c0.5,0,1-0.2,1.3-0.3c1.3-0.7,1.5-2.3,0.6-4.7c-0.2-0.6-0.5-1.2-0.9-1.8L59.5,141.5z"/>
			<path class="st0" d="M105,149.2c0.3,0.9,0.5,1.9,0.5,2.9c0,1.2-0.2,2.3-0.7,3.3c-0.5,1-1.2,1.8-2.1,2.5c-0.9,0.7-2.1,1.3-3.4,1.7
				c-1.5,0.4-3,0.6-4.6,0.6c-1.9,0-3.7-0.3-5.4-0.9c-0.9-0.3-1.6-0.7-2.1-1.1c-0.5-0.4-0.9-0.9-1.2-1.4l-0.1-0.3
				c0-0.1-0.1-0.2-0.1-0.2c-0.2-0.8-0.2-1.6,0.2-2.3h0l0.2-0.3v0l0-0.1c0.1-0.2,0.3-0.4,0.5-0.5c0.4-0.2,0.8-0.3,1.4-0.3
				c0.5,0.1,1.1,0.3,2,0.7c0.2,0.1,0.4,0.2,0.6,0.2c1.3,0.6,2.6,0.9,3.9,0.9c0,0,0.1,0,0.1,0h0.1c0.6,0,1.1-0.1,1.6-0.2
				c0.3-0.1,0.5-0.2,0.8-0.3c0.4-0.2,0.8-0.5,1-0.9c0.3-0.5,0.3-1,0.2-1.5c-0.1-0.4-0.3-0.7-0.6-1c-0.3-0.3-0.6-0.5-0.9-0.6
				s-0.7-0.2-1.2-0.4l-0.3-0.1c-0.1,0-0.4-0.1-0.7-0.2l-0.5-0.1c-1.3-0.4-2.2-0.7-2.9-1l-0.6-0.2c-1.7-0.8-2.9-1.7-3.7-2.8
				c-0.7-1-1.1-2.2-1.2-3.6c-0.1-1.8,0.4-3.5,1.5-4.9v0l0.5-0.6v0.1c0.2-0.3,0.5-0.5,0.8-0.7c0.3-0.2,0.5-0.4,0.9-0.6h0l0.6-0.3
				l0.1,0c1.6-0.7,3.5-1.1,5.9-1.1c1.2,0,2.3,0.1,3.3,0.2c0.3,0.1,0.7,0.2,1.1,0.3l0.1,0l0.4,0.1c0.6,0.2,1.2,0.4,1.6,0.7
				c0,0,0.1,0.1,0.2,0.1v0l0.3,0.3l0.1,0.1c0.6,0.5,1,1,1.1,1.6c0.2,0.5,0.2,1,0,1.6c-0.1,0.4-0.2,0.7-0.4,0.9
				c-0.3,0.4-0.8,0.5-1.5,0.5c-0.9-0.1-2.3-0.2-4.1-0.5c-1.3-0.2-2.3-0.3-3.2-0.1c-0.7,0.1-1.2,0.5-1.6,0.9
				c-0.3,0.4-0.4,0.9-0.3,1.3c0.1,0.6,0.5,1,1.1,1.2c0.6,0.3,1.5,0.6,2.7,1c1.8,0.6,3.2,1.2,4.1,1.6c0.5,0.3,0.9,0.5,1.4,0.9
				l0.2,0.1l0.1,0.1v0c0.3,0.2,0.6,0.4,0.8,0.6c0.3,0.3,0.6,0.7,0.9,1.2h0l0.1,0.1l0.1,0.2v0C104.8,148.7,105,149,105,149.2z"/>
			<path class="st0" d="M143.8,158.2l0.1,0l-0.3,0.5l0,0.1c-0.2,0.4-0.6,0.7-1,0.9c-0.4,0.2-1,0.3-1.6,0.3c-0.4,0-0.9,0-1.4-0.1
				c-1.3-0.3-2.2-1-2.7-2.3c-0.1-0.2-0.2-0.5-0.3-0.9c-0.3-0.9-0.5-1.5-0.9-1.8c-0.1-0.1-0.2-0.2-0.3-0.3c-0.7-0.4-1.8-0.6-3.3-0.6
				c-0.1,0-0.3,0-0.6,0c-0.9,0-1.5,0-1.9,0.1c-0.3,0.1-0.5,0.2-0.7,0.3c-0.5,0.4-1,1.1-1.4,2.1l0,0.1h0c-0.2,0.5-0.3,0.8-0.4,1.1
				s-0.3,0.5-0.6,0.9c-0.3,0.3-0.6,0.6-1,0.7c-0.6,0.3-1.2,0.4-1.9,0.5c-0.7,0-1.4-0.1-2-0.3c-0.7-0.3-1.1-0.8-1.3-1.5
				c-0.1-0.4-0.1-1,0.1-1.8c0.7-3,2.1-7.5,4.2-13.4l0.5-1.2c0.5-1.5,0.9-2.6,1.2-3.5c0,0,0-0.1,0.1-0.2l0.1-0.3l0-0.1
				c0.4-1,0.8-1.8,1.4-2.3c0.9-0.8,2.2-1.3,4-1.4c2.2-0.1,3.8,0.5,4.8,1.5c0.6,0.6,1.2,1.7,1.7,3.2c0.4,1.4,0.9,2.9,1.4,4.5l0.1,0.3
				c0.2,0.6,0.3,1.1,0.5,1.7l0.1,0.5v0l0,0.1c0.8,2.7,1.8,6,3,10.1l0,0.2l0,0.1v0l0.1,0.2h0C143.9,157,144,157.7,143.8,158.2z
				 M132.6,141.5c0-0.1-0.1-0.2-0.1-0.2c0,0-0.1,0-0.1,0c0,0-0.1,0-0.2,0c-0.1,0-0.1,0.1-0.1,0.1c-0.1,0.1-0.2,0.3-0.3,0.7
				c-0.3,1-0.6,2-1,2.9c-0.1,0.1-0.2,0.4-0.4,0.7c-0.4,0.8-0.6,1.3-0.6,1.7c0,0.4,0.2,0.7,0.6,0.9c0.4,0.2,0.9,0.3,1.4,0.2
				c0.5,0,1-0.2,1.3-0.3c1.3-0.7,1.5-2.3,0.6-4.7c-0.2-0.6-0.5-1.2-0.9-1.8L132.6,141.5z"/>
			<path class="st0" d="M182.2,150.5L182.2,150.5c0,3-0.1,5.3-0.3,6.9c-0.1,0.6-0.3,1.1-0.5,1.4c-0.2,0.3-0.5,0.5-0.9,0.7
				c-0.3,0.1-0.6,0.2-1.1,0.3c-0.5,0.1-0.9,0.1-1.4,0.1c-0.8,0-1.4-0.1-2.1-0.3c-1.5-0.5-2.6-1.7-3.6-3.6c-1.1-2.3-2.8-5.7-5.2-10.3
				l-0.2-0.4c-0.1-0.2-0.2-0.4-0.3-0.5c-0.1-0.1-0.3-0.1-0.4,0c-0.1,0.1-0.1,0.2-0.2,0.4c0,0.6,0,1.5,0,2.6c0,0.7,0.1,1.2,0.1,1.6
				c0,0.6,0,1.3,0,2.2v0.1c0,1.7,0,2.9,0,3.8c0,0.7,0,1.1,0,1.4c0,0.4,0,0.9-0.1,1.3c-0.1,0.4-0.3,0.8-0.7,1
				c-0.4,0.3-0.9,0.4-1.5,0.5c-0.8,0-1.6,0-2.3-0.2c-0.6-0.1-1.1-0.4-1.4-0.6c-0.5-0.5-0.8-1.4-0.8-2.8c0-1.7,0-4.2,0-7.6
				c0-1.5,0-2.7,0-3.7c0-0.4,0-1,0-1.6v-0.1v-0.2v-0.4V142c0-0.6,0-1,0-1.2c0-0.2,0-0.6,0-1.1c0-0.9,0-1.6,0-2.1c0-0.1,0-0.2,0-0.4
				c0-1.1,0.2-1.9,0.5-2.3c0.3-0.4,0.8-0.7,1.5-0.9c0.5-0.1,1.1-0.3,1.7-0.3h0.1l0.5,0v0c0.2,0,0.3,0,0.5,0c1.1,0.1,2.1,0.4,2.8,0.8
				l0-0.1l0.3,0.3h0c0,0,0,0.1,0.1,0.1l0.1,0.1v0c0.5,0.4,1,1.2,1.5,2.3c0.1,0.2,0.1,0.3,0.2,0.4c0.2,0.4,0.5,1.1,1,1.9
				c0.3,0.7,0.6,1.1,0.8,1.5c0,0.1,0.1,0.2,0.1,0.3l0.3,0.7c0.2,0.4,0.4,0.8,0.6,1.2l0.2,0.4h0v0.1c0.8,1.5,1.6,3.2,2.5,5.1
				c0,0,0,0,0,0c0,0,0-0.1,0.1-0.1c0.3-0.5,0.4-1.4,0.4-2.5c0-0.2,0-0.4,0-0.5c0-1.3,0-2.6,0-3.8c-0.1-2.7,0-4.8,0.3-6.3
				c0.1-0.8,0.3-1.3,0.7-1.5c0.3-0.2,0.6-0.3,1.1-0.4l0.6,0c0.5,0,1,0,1.5,0c0.1,0,0.2,0,0.3,0v0l0.5,0.1h0.1
				c0.3,0.1,0.5,0.2,0.6,0.3c0.6,0.5,1,1.2,1.1,2.2c0.1,0.7,0.1,1.8,0,3.2c-0.1,0.8-0.1,1.3-0.1,1.7v6c0,0.1,0,0.3,0,0.5v0.1v0.1
				c0,0.4,0,1.1,0,2.1V150.5L182.2,150.5z"/>
			<path class="st0" d="M221.4,158.2l0.1,0l-0.3,0.5l0,0.1c-0.2,0.4-0.6,0.7-1,0.9c-0.4,0.2-1,0.3-1.6,0.3c-0.4,0-0.9,0-1.4-0.1
				c-1.3-0.3-2.2-1-2.7-2.3c-0.1-0.2-0.2-0.5-0.3-0.9c-0.3-0.9-0.5-1.5-0.9-1.8c-0.1-0.1-0.2-0.2-0.3-0.3c-0.7-0.4-1.8-0.6-3.3-0.6
				c-0.1,0-0.3,0-0.6,0c-0.9,0-1.5,0-1.9,0.1c-0.3,0.1-0.5,0.2-0.7,0.3c-0.5,0.4-1,1.1-1.4,2.1l0,0.1h0c-0.2,0.5-0.3,0.8-0.4,1.1
				c-0.1,0.3-0.3,0.5-0.6,0.9c-0.3,0.3-0.6,0.6-1,0.7c-0.6,0.3-1.2,0.4-1.9,0.5c-0.7,0-1.4-0.1-2-0.3c-0.7-0.3-1.1-0.8-1.3-1.5
				c-0.1-0.4-0.1-1,0.1-1.8c0.7-3,2.1-7.5,4.2-13.4l0.5-1.2c0.5-1.5,0.9-2.6,1.2-3.5c0,0,0-0.1,0.1-0.2l0.1-0.3l0-0.1
				c0.4-1,0.8-1.8,1.4-2.3c0.9-0.8,2.2-1.3,4-1.4c2.2-0.1,3.8,0.5,4.8,1.5c0.6,0.6,1.2,1.7,1.7,3.2c0.4,1.4,0.9,2.9,1.4,4.5l0.1,0.3
				c0.2,0.6,0.3,1.1,0.5,1.7l0.1,0.5v0l0,0.1c0.8,2.7,1.8,6,3,10.1l0,0.2l0,0.1v0l0.1,0.2h0C221.5,157,221.5,157.7,221.4,158.2z
				 M210.1,141.5c0-0.1-0.1-0.2-0.1-0.2c0,0-0.1,0-0.1,0c0,0-0.1,0-0.2,0c-0.1,0-0.1,0.1-0.1,0.1c-0.1,0.1-0.2,0.3-0.3,0.7
				c-0.3,1-0.6,2-1,2.9c-0.1,0.1-0.2,0.4-0.4,0.7c-0.4,0.8-0.6,1.3-0.6,1.7c0,0.4,0.2,0.7,0.6,0.9c0.4,0.2,0.9,0.3,1.4,0.2
				c0.5,0,1-0.2,1.3-0.3c1.3-0.7,1.5-2.3,0.6-4.7c-0.2-0.6-0.5-1.2-0.9-1.8L210.1,141.5z"/>
		</g>
		<path class="st0" d="M115.3,5.5C99,13.2,9.5,58.8,4.2,126.6h222.1C221,58.4,131.5,13.2,115.3,5.5z M152.7,70.8
			c6.3-2.2,12.8-4.5,17.6-6.5l0.1,0.1l-1.8,3.5c-5.5,2.3-11.1,4.4-16.5,6.2l-0.1-0.1L152.7,70.8z M115.1,70.7
			c6.3-2.2,12.8-4.5,17.6-6.5l0.1,0.1l-1.8,3.5c-5.5,2.3-11.1,4.3-16.5,6.2l-0.1-0.1L115.1,70.7z M81.7,65.5
			c6.3-2.2,12.8-4.5,17.6-6.5l0.1,0.1l-1.8,3.5C92.1,65,86.5,67,81.1,68.8L81,68.7L81.7,65.5z M94.9,81c-1,1.7-2.2,3.2-3.7,4.6
			c-1.7-1.8-3.5-3.3-5.3-4.9c1.2-1.7,2.4-3.3,3.6-4.8C91.4,77.4,93.2,79.1,94.9,81z M71.3,60.6c1.8,1.5,3.3,3.1,5.1,5
			c-1.3,1.9-2.2,3.1-3.4,4.3c-1.8-1.8-3.4-3.3-5.2-4.9C68.9,63.4,70.2,61.8,71.3,60.6z M62.7,61.2c1.8,1.5,3.3,3.1,5.1,5
			c-1.3,1.9-2.2,3.1-3.4,4.3c-1.8-1.8-3.4-3.3-5.2-4.9C60.3,64,61.6,62.4,62.7,61.2z M183.6,97.3c-3.7-0.1-6.3,0.8-7.7,1.7l-7.5,5.1
			c-6,4.1-12.4,6.3-19.4,6.3h-3.4c-5.5,0-8.1-1.8-9.2-4.4h-0.3c-2.5,3.1-5,4.4-7.6,4.4c-1.9,0-4.1-0.6-4.9-3.9h-0.2
			c-2,2.3-4.4,3.9-7.7,3.9c-2.4,0-4-1.2-4.3-4h-0.2c-2.7,3.3-6.5,4-9.5,4h-1.8c-4.4,0-7.7-1.3-9.2-4.8h-0.2c-1.5,3.2-5,4.8-8.9,4.8
			h-1.8c-4.4,0-7.6-1.2-9.3-6.6c-2.6,1.2-5.4,2.1-8.9,2.1c-4.7,0-8.1-1.7-8.1-5.5c0-1.4,0.4-3.1,1.5-5.5c1.9-4.2,6.6-8.5,14.3-13
			l-0.3-3.5c1.1-1.4,2.3-2.7,3.5-3.9h0.5c0.2,7.3,0.2,14.7,0.3,22c0.1,3.3,0.4,5.4,1.7,6.6c1,0.9,2.7,1.2,4.7,1.2h2.1
			c3.4,0,7-1.5,7.7-4.1l1.3-5.1l3.1-2.4l0.3,0.3c-0.6,2.4-1,4.4-1,5.5c0,1.7,0.4,3,1.5,3.9c1.4,1.2,3.2,1.9,5.5,1.9h2.3
			c4.1-0.1,7.2-1.2,9.4-4.4l2.2-3.7l3.5-1.3l0.2,0.2c-1.7,3.1-2.9,5.3-2.9,6.7c0,1.5,1,2.4,2.4,2.4c1.3,0,2.7-0.5,3.9-1.4
			c1.1-0.8,2.2-2.5,2.9-4.1l1.1-2.8l3.4-1.6l0.2,0.2c-1.3,3.6-1.8,5.3-1.8,7.1c0,1.3,0.8,2.7,2.5,2.7c1.5,0,2.4-0.6,3.1-1
			c1.3-0.9,2.1-2.5,2.6-4.5c0.2-0.8,0.5-1.7,0.9-3.7l3.4-2.4l0.2,0.1c-0.6,2.1-1.1,4.7-1.1,6.5c0,3.7,3.1,5.1,7.3,5.1h3.7
			c7.2,0,14.7-2.7,23.8-8.5l0.1-0.2c-5.2-2-9.9-3.3-14-3.3c-2.5,0-4.4,0.8-5.7,2.3l0.5,2.4l-1.3,4.2h-0.5l-2.2-6.2
			c0.4-5.2,4.3-8.5,9.7-8.5c3,0,7.7,1.1,14.7,4.1c2.2,0.9,4.8,1.5,7.6,1.5l3.6,0l0.1,0.1L183.6,97.3z"/>
		<path class="st0" d="M225.4,178.1H5.1c-0.5,0-0.9-0.4-0.9-0.9v-8.8c0-0.5,0.4-0.9,0.9-0.9h220.3c0.5,0,0.9,0.4,0.9,0.9v8.8
			C226.3,177.6,225.9,178.1,225.4,178.1z"/>
	</g>
</g>
</svg>
